<svg version="1.2" xmlns="http://www.w3.org/2000/svg" viewBox="0 0 815 830" width="815" height="830">
	<title>7587451-ai</title>
	<style>
		.s0 { fill: #ffd384 } 
		.s1 { fill: #000000 } 
		.s2 { fill: #9782cc } 
		.s3 { fill: #dbcffd } 
		.s4 { opacity: .6;mix-blend-mode: multiply;fill: #dbcffd } 
		.s5 { fill: #fefefe } 
		.s6 { fill: #e6e1ff } 
		.s7 { fill: #7d63bf } 
		.s8 { fill: #ffd6bd } 
		.s9 { fill: #402f24 } 
		.s10 { fill: #ffffff } 
		.s11 { fill: #ffc8a7 } 
		.s12 { fill: #cbc1e5 } 
		.s13 { fill: #2a2140 } 
	</style>
	<g id="BACKGROUND">
	</g>
	<g id="OBJECTS">
		<g id="&lt;Group&gt;">
			<g id="&lt;Group&gt;">
				<g id="&lt;Group&gt;">
					<path id="&lt;Path&gt;" class="s0" d="m486.5 56.7c-3.5 1.2-6.3 2.2-9.1 3.1-3.8 1.1-7.7 2.2-11.6 3.2-1.5 0.4-2.2 1.2-2.4 2.7-2.3 13.6-4.6 27.1-7 40.7 0 0.4-0.1 0.9-0.7 1.4q-1-6.3-2.1-12.5-1.4-8-2.8-16-1.2-6.8-2.3-13.6c-0.3-1.6-1-2.3-2.5-2.7-5.8-1.6-11.5-3.4-17.2-5.1-0.9-0.2-1.8-0.6-2.7-0.9q0-0.3 0-0.6c3.9-1.2 7.7-2.5 11.6-3.6 1.6-0.5 3.3-0.9 4.9-1.3 5.6-1.7 5.6-1.7 6.6-7.5 2.1-12.3 4.2-24.6 6.2-36.9 0.1-0.5 0.2-0.9 0.8-1.4 0.7 4.2 1.3 8.3 2.1 12.5 1.2 7.3 2.5 14.6 3.8 21.9q0.6 3.8 1.3 7.6c0.2 1.6 0.9 2.3 2.5 2.8 5.7 1.6 11.5 3.3 17.2 5 0.9 0.3 1.8 0.7 3.4 1.2z"/>
				</g>
				<g id="&lt;Group&gt;">
					<g id="&lt;Group&gt;">
						<path id="&lt;Compound Path&gt;" fill-rule="evenodd" class="s1" d="m489.1 57.4c-4.6 1.6-9.2 3.3-13.8 4.8-2.7 0.9-5.5 1.6-8.3 2.3-1.3 0.3-1.8 0.9-2 2.2q-3.5 20.3-7.1 40.6c-0.4 2.1-0.9 4.1-1.3 6.2q-0.5 0-1.1 0c-0.3-1.1-0.8-2.2-1-3.4-2.3-13-4.5-26-6.7-39-1.1-6.2-1.2-6.1-7.1-7.8-5.1-1.4-10.2-2.9-15.2-4.6-1-0.3-1.7-1.4-2.6-2.1 0.9-0.6 1.6-1.6 2.6-1.9q9.5-2.9 19.1-5.6c1.4-0.4 2.1-1 2.3-2.5 2.5-14.4 5-28.7 7.5-43 0.3-1.2 0.7-2.4 1-3.6q0.4 0 0.9 0c0.4 1.1 0.9 2.3 1.1 3.5 2.1 12.2 4.2 24.3 6.3 36.4 0.5 2.9 0.3 6.4 2 8.2 1.7 1.8 5.3 1.9 8 2.7 4.3 1.3 8.6 2.6 12.9 3.9 0.8 0.3 1.6 0.9 2.5 1.3q0 0.7 0 1.4zm-63-1q0 0.3 0 0.6c0.9 0.3 1.8 0.6 2.7 0.9 5.7 1.7 11.4 3.5 17.2 5.1 1.5 0.4 2.2 1.1 2.5 2.7 1.6 9.9 3.4 19.7 5.1 29.6 0.7 4.1 1.4 8.3 2.1 12.5 0.6-0.5 0.6-1 0.7-1.4 2.4-13.6 4.7-27.1 7-40.7 0.2-1.5 0.9-2.3 2.4-2.7 3.9-1 7.8-2.1 11.6-3.2 2.8-0.9 5.6-1.9 9.1-3.1-1.6-0.5-2.5-0.9-3.4-1.2-5.7-1.7-11.5-3.4-17.2-5.1-1.6-0.4-2.3-1.1-2.5-2.7-1.7-9.8-3.4-19.7-5.1-29.5-0.8-4.2-1.4-8.4-2.1-12.5-0.6 0.5-0.7 0.9-0.8 1.4q-3.1 18.4-6.2 36.9c-1 5.8-1 5.8-6.6 7.4-1.6 0.5-3.3 0.9-4.9 1.4-3.9 1.1-7.7 2.4-11.6 3.6z"/>
					</g>
				</g>
				<g id="&lt;Group&gt;" style="opacity: .5;mix-blend-mode: multiply">
					<path id="&lt;Path&gt;" class="s0" d="m486.5 56.7c-3.5 1.2-6.3 2.2-9.1 3.1-3.8 1.1-7.7 2.2-11.6 3.2-1.5 0.4-2.2 1.2-2.4 2.7-2.3 13.6-4.6 27.1-7 40.7 0 0.4-0.1 0.9-0.7 1.4q-1-6.3-2.1-12.5-1.4-8-2.8-16c3.7-10.5 7.9-24 11.3-39.2q0.6 3.8 1.3 7.6c0.2 1.6 0.9 2.3 2.5 2.8 5.7 1.6 11.5 3.3 17.2 5 0.9 0.3 1.8 0.7 3.4 1.2z"/>
				</g>
			</g>
			<g id="&lt;Group&gt;">
				<g id="&lt;Group&gt;">
					<path id="&lt;Path&gt;" class="s0" d="m58.2 316.5c-3.1 1-5.7 2-8.3 2.7-3.5 1.1-6.9 2.1-10.5 3-1.4 0.3-2 1-2.2 2.5-2.1 12.3-4.2 24.6-6.3 37-0.1 0.4-0.2 0.8-0.7 1.2q-0.9-5.7-1.9-11.4-1.3-7.2-2.5-14.5-1.1-6.2-2.2-12.4c-0.2-1.4-0.8-2-2.2-2.4-5.3-1.5-10.5-3.1-15.7-4.7-0.8-0.2-1.6-0.5-2.4-0.8q0-0.3-0.1-0.6c3.6-1 7.1-2.2 10.6-3.3 1.5-0.4 3-0.7 4.5-1.1 5.1-1.5 5.1-1.5 6-6.9 1.9-11.2 3.8-22.3 5.7-33.5 0-0.4 0.1-0.8 0.6-1.3 0.7 3.8 1.3 7.6 1.9 11.4 1.2 6.7 2.4 13.3 3.5 19.9q0.6 3.5 1.2 7c0.2 1.4 0.9 2.1 2.2 2.5 5.3 1.4 10.5 3 15.7 4.6 0.9 0.2 1.7 0.6 3.1 1.1z"/>
				</g>
				<g id="&lt;Group&gt;">
					<g id="&lt;Group&gt;">
						<path id="&lt;Compound Path&gt;" fill-rule="evenodd" class="s1" d="m60.5 317.1c-4.1 1.5-8.2 3-12.4 4.3-2.5 0.9-5.1 1.5-7.6 2.1-1.2 0.3-1.7 0.8-1.9 2q-3.1 18.5-6.4 37c-0.3 1.9-0.8 3.7-1.2 5.6q-0.5 0-1 0c-0.3-1-0.7-2-0.9-3.1-2.1-11.8-4.1-23.6-6.1-35.4-1-5.7-1.1-5.6-6.5-7.2q-6.9-1.9-13.8-4.1c-0.9-0.3-1.5-1.3-2.3-1.9 0.8-0.6 1.4-1.5 2.3-1.8q8.7-2.7 17.4-5.1c1.2-0.4 1.9-0.9 2.1-2.3 2.2-13 4.6-26.1 6.9-39.1 0.2-1.1 0.5-2.1 0.8-3.2q0.4-0.1 0.9-0.1c0.3 1.1 0.8 2.2 1 3.3 1.9 11 3.7 22 5.7 33.1 0.4 2.6 0.3 5.8 1.8 7.4 1.5 1.7 4.8 1.7 7.3 2.5 3.9 1.1 7.8 2.3 11.7 3.6 0.8 0.2 1.5 0.7 2.2 1.1q0 0.7 0 1.3zm-57.3-1q0.1 0.3 0.1 0.6c0.8 0.3 1.6 0.6 2.4 0.8 5.2 1.6 10.4 3.2 15.7 4.7 1.4 0.4 2 1 2.2 2.4 1.5 9 3.1 18 4.7 26.9 0.6 3.8 1.3 7.6 1.9 11.4 0.5-0.4 0.6-0.8 0.7-1.3 2.1-12.3 4.2-24.6 6.3-36.9 0.2-1.5 0.8-2.2 2.2-2.5 3.6-0.9 7.1-1.9 10.5-3 2.6-0.7 5.2-1.7 8.3-2.7-1.4-0.5-2.2-0.9-3.1-1.1-5.2-1.6-10.4-3.2-15.7-4.7-1.3-0.3-2-1-2.2-2.4-1.5-9-3.1-17.9-4.7-26.9-0.6-3.8-1.2-7.6-1.9-11.4-0.5 0.5-0.6 0.9-0.6 1.3q-2.9 16.8-5.7 33.5c-0.9 5.4-0.9 5.4-6 6.9-1.5 0.4-3 0.7-4.5 1.2q-5.3 1.6-10.6 3.2z"/>
					</g>
				</g>
				<g id="&lt;Group&gt;" style="opacity: .5;mix-blend-mode: multiply">
					<path id="&lt;Path&gt;" class="s0" d="m58.2 316.5c-3.1 1-5.7 2-8.3 2.7-3.5 1.1-6.9 2.1-10.5 3-1.4 0.3-2 1-2.2 2.5-2.1 12.3-4.2 24.6-6.3 37-0.1 0.4-0.2 0.8-0.7 1.2q-0.9-5.7-1.9-11.4-1.3-7.2-2.5-14.5c3.3-9.5 7.1-21.8 10.2-35.7q0.6 3.5 1.2 7c0.2 1.4 0.9 2.1 2.2 2.5 5.3 1.4 10.5 3 15.7 4.6 0.9 0.2 1.7 0.6 3.1 1.1z"/>
				</g>
			</g>
			<g id="&lt;Group&gt;">
				<g id="&lt;Group&gt;">
					<path id="&lt;Path&gt;" class="s0" d="m490.7 174.4c-1.3 0.5-2.4 0.9-3.5 1.2q-2.2 0.7-4.5 1.2c-0.6 0.2-0.8 0.5-0.9 1.1q-1.4 7.9-2.7 15.7c0 0.2-0.1 0.4-0.3 0.6q-0.4-2.5-0.8-4.9-0.5-3.1-1.1-6.1-0.4-2.7-0.9-5.3c-0.1-0.6-0.3-0.9-0.9-1.1-2.3-0.6-4.5-1.3-6.7-1.9q-0.5-0.2-1-0.4 0-0.1 0-0.2 2.2-0.7 4.5-1.4c0.6-0.2 1.2-0.3 1.8-0.5 2.2-0.7 2.2-0.7 2.6-2.9q1.2-7.2 2.4-14.3c0-0.2 0.1-0.3 0.3-0.5q0.4 2.4 0.8 4.8 0.7 4.3 1.5 8.5 0.2 1.5 0.5 2.9c0.1 0.7 0.3 0.9 0.9 1.1 2.3 0.6 4.5 1.3 6.7 1.9 0.4 0.2 0.7 0.3 1.3 0.5z"/>
				</g>
				<g id="&lt;Group&gt;">
					<g id="&lt;Group&gt;">
						<path id="&lt;Compound Path&gt;" fill-rule="evenodd" class="s1" d="m491.7 174.7c-1.8 0.6-3.5 1.2-5.3 1.8q-1.6 0.5-3.2 0.9c-0.5 0.1-0.7 0.4-0.8 0.9q-1.4 7.8-2.7 15.7c-0.2 0.8-0.4 1.6-0.5 2.3q-0.3 0.1-0.5 0.1c-0.1-0.5-0.3-0.9-0.4-1.3q-1.3-7.6-2.6-15.1c-0.4-2.4-0.4-2.4-2.7-3.1q-3-0.8-5.9-1.7c-0.3-0.1-0.6-0.6-1-0.8 0.4-0.3 0.7-0.7 1-0.8q3.7-1.1 7.4-2.2c0.5-0.1 0.8-0.3 0.9-0.9q1.4-8.3 2.9-16.6c0.1-0.5 0.3-0.9 0.4-1.4q0.2 0 0.3 0c0.2 0.4 0.4 0.9 0.5 1.3q1.2 7.1 2.4 14.1c0.2 1.1 0.1 2.5 0.8 3.2 0.6 0.7 2 0.7 3.1 1q2.5 0.8 4.9 1.5c0.4 0.1 0.7 0.4 1 0.5q0 0.3 0 0.6zm-24.3-0.4q0 0.1 0 0.2 0.5 0.2 1 0.4c2.2 0.6 4.4 1.3 6.7 1.9 0.6 0.2 0.8 0.5 0.9 1.1 0.7 3.8 1.3 7.6 2 11.4q0.4 2.4 0.8 4.8c0.2-0.1 0.3-0.3 0.3-0.5q1.3-7.8 2.7-15.7c0.1-0.6 0.3-0.9 0.9-1.1q2.3-0.5 4.5-1.2c1.1-0.3 2.2-0.7 3.5-1.2-0.6-0.2-0.9-0.3-1.3-0.4-2.2-0.7-4.4-1.4-6.7-2-0.6-0.2-0.8-0.5-0.9-1.1-0.7-3.8-1.3-7.6-2-11.4q-0.4-2.4-0.8-4.8c-0.2 0.2-0.3 0.3-0.3 0.5q-1.2 7.1-2.4 14.3c-0.4 2.2-0.4 2.2-2.6 2.9-0.6 0.1-1.2 0.3-1.8 0.5q-2.3 0.7-4.5 1.4z"/>
					</g>
				</g>
				<g id="&lt;Group&gt;" style="opacity: .5;mix-blend-mode: multiply">
					<path id="&lt;Path&gt;" class="s0" d="m490.7 174.4c-1.3 0.5-2.4 0.9-3.5 1.2q-2.2 0.7-4.5 1.2c-0.6 0.2-0.8 0.5-0.9 1.1q-1.4 7.9-2.7 15.7c0 0.2-0.1 0.4-0.3 0.6q-0.4-2.5-0.8-4.9-0.5-3.1-1.1-6.1c1.4-4.1 3.1-9.3 4.4-15.2q0.2 1.5 0.5 2.9c0.1 0.7 0.3 0.9 0.9 1.1 2.3 0.6 4.5 1.3 6.7 1.9 0.4 0.2 0.7 0.3 1.3 0.5z"/>
				</g>
			</g>
		</g>
		<g id="&lt;Group&gt;">
			<g id="&lt;Group&gt;">
				<g id="&lt;Group&gt;">
					<g id="&lt;Group&gt;">
						<path id="&lt;Path&gt;" class="s2" d="m578.7 801c-0.6 1-2.2 2-3.3 1.9-2.5-0.2-5.2-0.7-7.4-1.9-7.7-4.2-15.7-5.7-24.4-4.4-5.7 0.9-11.4 1.8-17.1 2-14 0.4-26.1-4.1-35.3-15.1q-1.3-1.5-2.5-3c-2.3-2.6-4.5-5.1-6.9-7.5-6.4-6.3-13.8-10.4-23-11.2-9.9-0.9-19.1-4.5-27.6-9.7-12-7.4-20.7-18.1-29.6-28.8-4-4.9-8.3-9.7-12.8-14.2-1.9-1.9-4.5-3.1-6.9-4.7q0.1-0.2 0.1-0.5c1.7 0.1 3.4-0.1 4.9 0.4 4.9 1.4 10 2.3 14.3 4.7 9.3 5.2 18.5 10.7 27.2 16.9 15.3 10.9 31.6 18.5 50.8 18.1q2.9 0 5.6 0.4c6 1 11.5 3.6 16.4 7.5 6 4.9 11.7 10.3 17.3 15.8 5.4 5.4 11.5 9.6 18.9 11.8q7.5 2.4 15.3 4.2c9.6 2.2 17.8 6.9 24.5 14.1 0.8 0.8 1.8 2.5 1.5 3.2z"/>
					</g>
					<g id="&lt;Group&gt;">
						<path id="&lt;Path&gt;" class="s3" d="m578.2 795.2c-1.3-0.5-2.2-1.3-3.1-2.1-5.6-5.2-12.2-8.8-19.6-10.6-3.9-1-7.8-1.9-11.7-2.8-8.6-2.2-16.6-5.7-23-12.2-3.4-3.5-6.8-7-10.3-10.4-7.6-7.3-16.1-12.7-26.3-14.3q-3.7-0.6-7.7-0.5c-1.6 0-3.2-0.2-4.8-0.3-7.7-0.7-15.4-1.5-22.2-5.3-7.6-4.2-15-8.7-22.1-13.5-13-8.7-25.6-17.9-41.5-20.8 6.3-2 12.7-2.1 19.2-1.2 12.7 1.8 23.6 7.8 33.6 15.4 6.7 5 13.7 7.3 22 6.1 2.3-0.3 4.6-0.4 6.9-0.5q3-0.1 5.9 0.2c8.7 0.7 16.8 3.6 23.5 9.9 5.1 4.7 9.5 10.1 13.9 15.5 6.6 8 14.3 13.9 24.8 15.5 3.5 0.6 6.9 1.2 10.3 2.1 9.9 2.3 18.3 6.9 24.1 15.4 2.7 4.1 5 8.3 7.5 12.5 0.3 0.6 0.4 1.3 0.6 1.9z"/>
					</g>
					<g id="&lt;Group&gt;">
						<g id="&lt;Group&gt;">
							<path id="&lt;Compound Path&gt;" fill-rule="evenodd" class="s1" d="m568.9 776.9c3.5 5.3 7.2 10.6 10.4 16.1 1.2 2 1.5 4.6 2 7 0.2 0.7-0.1 1.7-0.6 2.2-2.2 2.2-4.8 3.5-8 2.8-1.8-0.5-3.7-1.1-5.3-2.1-7.6-4.3-15.6-5.6-24.3-4.2-5.3 0.8-10.6 1.7-15.9 1.8-14.3 0.6-26.8-3.7-36.5-14.7-3.1-3.5-6.1-7-9.3-10.4-6.4-6.6-13.8-11-23.4-11.7-9.4-0.8-18.2-4.3-26.3-9.1-12-7.1-21.1-17.3-29.6-28-6.6-8.3-12.8-16.9-22.8-21.6-0.6-0.3-0.9-1.1-1.3-1.7 0.7-0.5 1.3-1.2 2.1-1.5 14.7-4.7 29.1-3.7 42.8 3.2 6.4 3.2 12.4 7 18.2 11.1 5.4 3.9 11 5.7 17.5 5.1 2.7-0.3 5.4-0.6 8.1-0.7 11.5-0.4 22.2 2.1 30.7 10 5.7 5.2 10.6 11.3 15.6 17.2 5.7 6.8 12.4 11.9 21.4 13.6 3.6 0.7 7.2 1.3 10.8 2.1 8.4 1.9 15.9 5.3 22.2 11.7 0.4 0.5 1.1 1.1 1.5 1.8zm-180.1-67.8c4.5 4.5 8.8 9.3 12.8 14.2 8.9 10.7 17.6 21.4 29.6 28.8 8.5 5.2 17.7 8.8 27.6 9.7 9.2 0.8 16.6 4.9 23 11.2 3.3 3.3 6.4 6.9 9.4 10.5 9.2 11 21.3 15.5 35.3 15.1 5.7-0.2 11.4-1.1 17.1-2 8.7-1.3 16.7 0.2 24.3 4.4 2.3 1.2 5 1.7 7.5 1.9 1.1 0.1 2.7-0.9 3.2-1.9 0.4-0.7-0.6-2.4-1.4-3.2-6.7-7.2-14.9-11.9-24.5-14.1-5.2-1.2-10.3-2.6-15.3-4.2-7.4-2.2-13.5-6.4-18.9-11.8-5.6-5.5-11.3-10.9-17.3-15.8-6.3-5.1-13.8-8-22-7.9-19.2 0.4-35.5-7.2-50.8-18.1-8.7-6.2-17.9-11.7-27.2-16.9-4.3-2.4-9.4-3.3-14.3-4.7-1.5-0.5-3.2-0.3-4.9-0.4q0 0.2-0.1 0.5c2.4 1.6 5 2.8 6.9 4.7zm38.6 14.1c7.1 4.8 14.5 9.3 22.1 13.5 6.8 3.8 14.5 4.6 22.2 5.3 1.6 0.1 3.2 0.3 4.8 0.3 13.6-0.4 24.5 5.7 34 14.8 3.5 3.4 6.9 6.9 10.3 10.4 6.4 6.5 14.4 10 23 12.2 3.9 0.9 7.8 1.8 11.7 2.7 7.4 1.9 13.9 5.5 19.6 10.7 0.9 0.8 1.8 1.6 3.1 2.1-0.2-0.6-0.3-1.3-0.6-1.9-2.5-4.2-4.8-8.4-7.5-12.5-5.8-8.5-14.2-13.1-24.1-15.4q-5.1-1.2-10.3-2.1c-10.5-1.6-18.2-7.5-24.8-15.5-4.4-5.4-8.8-10.8-13.9-15.5-8.2-7.6-18.4-10.4-29.4-10.1-2.3 0.1-4.6 0.2-6.9 0.5-8.3 1.2-15.3-1.1-22-6.1-10-7.6-20.9-13.6-33.6-15.4-6.5-0.9-12.9-0.8-19.2 1.2 15.9 2.9 28.5 12.1 41.5 20.8z"/>
						</g>
					</g>
					<g id="&lt;Group&gt;" style="opacity: .6;mix-blend-mode: multiply">
						<path id="&lt;Path&gt;" class="s3" d="m510.5 757.1c-7.6-7.3-16.1-12.7-26.3-14.3-3.2-8.3-7.3-15.3-10.7-20.4 8.7 0.7 16.8 3.6 23.5 9.9 5.1 4.7 9.5 10.1 13.9 15.5 6.6 8 14.3 13.9 24.8 15.5 3.5 0.6 6.9 1.2 10.3 2.1 9.9 2.3 18.3 6.9 24.1 15.4 2.7 4.1 5 8.3 7.5 12.5 0.3 0.6 0.4 1.3 0.6 1.9-1.3-0.5-2.2-1.3-3.1-2.1-5.6-5.2-12.2-8.8-19.6-10.6-3.9-1-7.8-1.9-11.7-2.8-8.6-2.2-16.6-5.7-23-12.2-3.4-3.5-6.8-7-10.3-10.4z"/>
					</g>
					<g id="&lt;Group&gt;" style="opacity: .6;mix-blend-mode: multiply">
						<path id="&lt;Path&gt;" class="s2" d="m578.7 801c-0.6 1-2.2 2-3.3 1.9-2.5-0.2-5.2-0.7-7.4-1.9-7.7-4.2-15.7-5.7-24.4-4.4-5.7 0.9-11.4 1.8-17.1 2-14 0.4-26.1-4.1-35.3-15.1q-1.3-1.5-2.5-3c2.2-13.2-0.1-25.6-3.9-36.1 6 1 11.5 3.6 16.4 7.5 6 4.9 11.7 10.3 17.3 15.8 5.4 5.4 11.5 9.6 18.9 11.8q7.5 2.4 15.3 4.2c9.6 2.2 17.8 6.9 24.5 14.1 0.8 0.8 1.8 2.5 1.5 3.2z"/>
					</g>
				</g>
				<g id="&lt;Group&gt;">
					<g id="&lt;Group&gt;">
						<path id="&lt;Path&gt;" class="s2" d="m607.9 801c0.5 1 2.2 2 3.2 1.9 2.6-0.2 5.3-0.7 7.5-1.9 7.7-4.2 15.7-5.7 24.3-4.4 5.7 0.9 11.4 1.8 17.2 2 13.9 0.4 26-4.1 35.2-15.1q1.3-1.5 2.6-3c2.2-2.6 4.5-5.1 6.9-7.5 6.3-6.3 13.7-10.4 22.9-11.2 10-0.9 19.1-4.5 27.6-9.7 12-7.4 20.8-18.1 29.6-28.8 4.1-4.9 8.4-9.7 12.8-14.2 1.9-1.9 4.6-3.1 6.9-4.7q0-0.2-0.1-0.5c-1.6 0.1-3.4-0.1-4.9 0.4-4.8 1.4-10 2.3-14.3 4.7-9.3 5.2-18.5 10.7-27.2 16.9-15.3 10.9-31.5 18.5-50.8 18.1q-2.8 0-5.6 0.4c-6 1-11.5 3.6-16.3 7.5-6.1 4.9-11.8 10.3-17.3 15.8-5.5 5.4-11.6 9.6-18.9 11.8q-7.6 2.4-15.3 4.2c-9.7 2.2-17.8 6.9-24.6 14.1-0.8 0.8-1.8 2.5-1.4 3.2z"/>
					</g>
					<g id="&lt;Group&gt;">
						<path id="&lt;Path&gt;" class="s3" d="m608.4 795.2c1.3-0.5 2.2-1.3 3.1-2.1 5.6-5.2 12.1-8.8 19.5-10.6 3.9-1 7.8-1.9 11.7-2.8 8.7-2.2 16.6-5.7 23-12.2 3.5-3.5 6.8-7 10.4-10.4 7.6-7.3 16.1-12.7 26.2-14.3q3.7-0.6 7.7-0.5c1.6 0 3.2-0.2 4.8-0.3 7.7-0.7 15.4-1.5 22.3-5.3 7.5-4.2 14.9-8.7 22-13.5 13-8.7 25.7-17.9 41.6-20.8-6.4-2-12.8-2.1-19.2-1.2-12.8 1.8-23.7 7.8-33.7 15.4-6.7 5-13.7 7.3-21.9 6.1-2.3-0.3-4.6-0.4-7-0.5q-2.9-0.1-5.8 0.2c-8.8 0.7-16.9 3.6-23.6 9.9-5 4.7-9.5 10.1-13.9 15.5-6.5 8-14.3 13.9-24.7 15.5-3.5 0.6-7 1.2-10.4 2.1-9.8 2.3-18.3 6.9-24 15.4-2.7 4.1-5.1 8.3-7.6 12.5-0.3 0.6-0.3 1.3-0.5 1.9z"/>
					</g>
					<g id="&lt;Group&gt;">
						<g id="&lt;Group&gt;">
							<path id="&lt;Compound Path&gt;" fill-rule="evenodd" class="s1" d="m619.1 775.1c6.3-6.4 13.9-9.8 22.2-11.7 3.6-0.8 7.3-1.4 10.9-2.1 8.9-1.7 15.6-6.8 21.3-13.6 5.1-5.9 9.9-12 15.6-17.2 8.6-7.9 19.3-10.4 30.7-10 2.7 0.1 5.4 0.4 8.1 0.7 6.6 0.6 12.2-1.2 17.6-5.1 5.7-4.1 11.8-7.9 18.1-11.1 13.8-6.9 28.2-7.9 42.9-3.2 0.7 0.3 1.4 1 2 1.5-0.4 0.6-0.7 1.4-1.3 1.7-10 4.7-16.1 13.3-22.7 21.6-8.6 10.7-17.7 20.9-29.6 28-8.2 4.8-16.9 8.3-26.4 9.1-9.5 0.7-17 5.1-23.4 11.7-3.2 3.4-6.1 6.9-9.2 10.4-9.7 11-22.2 15.3-36.5 14.7-5.4-0.1-10.7-1-16-1.8-8.6-1.4-16.7-0.1-24.3 4.2-1.6 1-3.4 1.6-5.3 2.1-3.2 0.7-5.8-0.6-8-2.8-0.5-0.5-0.7-1.5-0.6-2.2 0.5-2.4 0.8-5 2-7 3.3-5.5 6.9-10.8 10.4-16.1 0.5-0.7 1.1-1.3 1.5-1.8zm185.5-70.7q0-0.3-0.1-0.5c-1.6 0.1-3.4-0.1-4.9 0.4-4.8 1.4-10 2.3-14.3 4.7-9.3 5.2-18.5 10.7-27.2 16.9-15.3 10.9-31.5 18.5-50.8 18.1-8.2-0.1-15.6 2.8-21.9 7.9-6.1 4.9-11.8 10.3-17.3 15.8-5.5 5.4-11.6 9.6-18.9 11.8-5.1 1.6-10.2 3-15.3 4.2-9.7 2.2-17.8 6.9-24.6 14.1-0.8 0.8-1.7 2.5-1.4 3.2 0.5 1 2.2 2 3.2 1.9 2.6-0.2 5.3-0.7 7.5-1.9 7.7-4.2 15.7-5.7 24.3-4.4 5.7 0.9 11.4 1.8 17.2 2 13.9 0.4 26-4.1 35.2-15.1 3.1-3.6 6.1-7.2 9.5-10.5 6.4-6.3 13.7-10.4 22.9-11.2 10-0.9 19.2-4.5 27.6-9.7 12-7.4 20.8-18.1 29.6-28.8 4.1-4.9 8.4-9.7 12.8-14.2 1.9-1.9 4.6-3.1 6.9-4.7zm-3.9-2c-6.4-2-12.8-2.1-19.2-1.2-12.8 1.8-23.7 7.8-33.7 15.4-6.7 5-13.7 7.3-21.9 6.1-2.3-0.3-4.6-0.4-7-0.5-11-0.3-21.2 2.5-29.4 10.1-5 4.7-9.5 10.1-13.9 15.5-6.5 8-14.3 13.9-24.7 15.5q-5.3 0.9-10.4 2.1c-9.8 2.3-18.3 6.9-24 15.4-2.7 4.1-5.1 8.3-7.6 12.5-0.3 0.6-0.3 1.3-0.5 1.9 1.3-0.5 2.2-1.3 3.1-2.1 5.6-5.2 12.1-8.8 19.5-10.7 3.9-0.9 7.8-1.8 11.7-2.7 8.7-2.2 16.6-5.7 23.1-12.2 3.4-3.5 6.8-7 10.3-10.4 9.4-9.1 20.3-15.2 33.9-14.8 1.6 0 3.2-0.2 4.8-0.3 7.7-0.7 15.4-1.5 22.3-5.3 7.5-4.2 14.9-8.7 22.1-13.5 12.9-8.7 25.6-17.9 41.5-20.8z"/>
						</g>
					</g>
					<g id="&lt;Group&gt;" style="opacity: .6;mix-blend-mode: multiply">
						<path id="&lt;Path&gt;" class="s3" d="m676.1 757.1c7.6-7.3 16.1-12.7 26.2-14.3 3.2-8.3 7.3-15.3 10.8-20.4-8.8 0.7-16.9 3.6-23.6 9.9-5 4.7-9.5 10.1-13.9 15.5-6.5 8-14.3 13.9-24.7 15.5-3.5 0.6-7 1.2-10.4 2.1-9.8 2.3-18.3 6.9-24 15.4-2.7 4.1-5.1 8.3-7.6 12.5-0.3 0.6-0.3 1.3-0.5 1.9 1.3-0.5 2.2-1.3 3.1-2.1 5.6-5.2 12.1-8.8 19.5-10.6 3.9-1 7.8-1.9 11.7-2.8 8.7-2.2 16.6-5.7 23-12.2 3.5-3.5 6.8-7 10.4-10.4z"/>
					</g>
					<g id="&lt;Group&gt;" style="opacity: .6;mix-blend-mode: multiply">
						<path id="&lt;Path&gt;" class="s2" d="m607.9 801c0.5 1 2.2 2 3.2 1.9 2.6-0.2 5.3-0.7 7.5-1.9 7.7-4.2 15.7-5.7 24.3-4.4 5.7 0.9 11.4 1.8 17.2 2 13.9 0.4 26-4.1 35.2-15.1q1.3-1.5 2.6-3c-2.2-13.2 0-25.6 3.8-36.1-6 1-11.5 3.6-16.3 7.5-6.1 4.9-11.8 10.3-17.3 15.8-5.5 5.4-11.6 9.6-18.9 11.8q-7.6 2.4-15.3 4.2c-9.7 2.2-17.8 6.9-24.6 14.1-0.8 0.8-1.8 2.5-1.4 3.2z"/>
					</g>
				</g>
				<g id="&lt;Group&gt;">
					<g id="&lt;Group&gt;">
						<path id="&lt;Path&gt;" class="s2" d="m546.4 822q-0.1 0.4-0.1 0.9c-1.4 0.1-2.9 0.4-4.2 0.1-1.5-0.3-3-1.1-4.4-1.9-5-3-10.6-4.3-16.3-5.3-5.5-1-11-2.1-16.3-3.9-4.5-1.5-9.1-2.2-13.6-2.3-5-0.2-9.9 0.3-14.8 1.3-7.6 1.5-14.8 1.4-21.9-1.5-10.1-4-19.7-2.6-29.2 2.2-5.4 2.7-10.8 5.6-16.9 6.4-3.2 0.4-6.4 0.9-9.6 0.9-7.9 0.1-15.1 2-21.4 6.8 5.5-5.7 21-21.5 33.5-27.9 10.2-5.2 21.4-7.7 32.9-7.7 9.8 0 19.5 0.4 29.2 1.5 6 0.8 12 1.7 18 3 18.3 3.9 34.4 12.2 49.3 23.2q2.9 2.1 5.8 4.2z"/>
					</g>
					<g id="&lt;Group&gt;">
						<path id="&lt;Path&gt;" class="s3" d="m548.1 821.1c-4.7-3.4-8.7-6.4-12.9-9.3-19.6-13.6-41.5-20.5-65.1-22.2q-2.3-0.2-4.7-0.3c-8.5-0.6-17.1-0.8-25.7-0.7-10.2 0.2-20 3-29 7.7-17 9-31.8 26.4-35 30q0-0.6 0.1-1c3.5-13.3 10.5-24 22.6-31.2 5.3-3.1 10-7.2 14.8-11 3.8-3.1 8-5 12.9-5 1.9 0 3.8 0.1 5.7 0.3 6.4 0.6 12.6 0.2 18.9-0.8 6-0.9 12.3-1.3 18.3-0.8q1.3 0.1 2.6 0.4c3.2 0.7 6.4 2.2 9.2 3.8 7.1 4.1 14.6 7 22.4 9.2 12.3 3.4 24.1 8.3 34 16.5 3.8 3.2 6.9 7.4 10.1 11.2 0.5 0.6 0.5 1.8 0.8 3.2z"/>
					</g>
					<g id="&lt;Group&gt;">
						<g id="&lt;Group&gt;">
							<path id="&lt;Compound Path&gt;" fill-rule="evenodd" class="s1" d="m549.1 822.2c-1.1 2.1-4.1 3.5-6.6 2.8-1.9-0.5-3.8-1.3-5.5-2.3-5.1-2.9-10.5-4.2-16.2-5.2-4.5-0.7-9.2-1.4-13.5-3-9.9-3.7-20-4-30-1.9-8.2 1.7-16.1 1.3-23.8-1.7-8.7-3.4-17.1-2.6-25.3 1.4-2.8 1.3-5.7 2.6-8.5 4-6.2 2.9-12.9 4.3-19.7 4.3-8.7-0.1-16.5 2.1-23.2 7.8-0.6 0.6-1.8 0.6-2.7 0.9-0.1-1-0.5-2-0.2-2.9 2.6-9.6 6-18.9 14.5-27.1 1.7-1.3 4.6-3.4 7.5-5.5 5.6-4.2 11.3-8.2 16.7-12.5 4-3.2 8.4-4.9 13.4-5 1.4 0 2.7 0 4.1 0.2 7.4 0.9 14.7 0.3 22.2-1 5.7-0.9 11.8-1.1 17.6-0.4 4.1 0.4 8.2 2.3 11.8 4.4 7.1 4.1 14.7 6.9 22.6 9.2 12.2 3.4 23.7 8.3 33.6 16.4 3.8 3.1 7 6.9 10.3 10.6 1.6 1.8 2.1 4.2 0.9 6.5zm-1-1.1c-0.3-1.4-0.3-2.6-0.8-3.2-3.3-3.8-6.3-8-10.1-11.2-9.9-8.2-21.7-13.1-34-16.5-7.8-2.2-15.3-5.1-22.4-9.2-3.6-2.1-7.7-3.9-11.8-4.2-6-0.5-12.3-0.1-18.3 0.8-6.3 1-12.5 1.4-18.9 0.8q-2.8-0.3-5.7-0.3c-4.9 0-9.1 1.9-12.9 5-4.8 3.8-9.5 7.9-14.8 11-12.1 7.2-19.1 17.8-22.6 31.2q-0.1 0.4-0.1 1c3.2-3.7 18-21.1 35-30 9-4.7 18.8-7.5 29-7.7 10.2-0.1 20.3 0.2 30.4 1 23.6 1.7 45.5 8.6 65.1 22.2 4.2 2.9 8.2 5.9 12.9 9.3zm-1.7 0.9q-2.9-2.1-5.8-4.2c-14.9-11-31-19.3-49.3-23.2-15.5-3.3-31.3-4.5-47.2-4.5-11.5 0-22.7 2.5-32.9 7.7-12.5 6.4-28 22.2-33.5 27.9 6.3-4.8 13.5-6.7 21.4-6.8 3.2 0 6.4-0.5 9.6-0.9 6.1-0.8 11.5-3.7 16.9-6.4 9.5-4.8 19.1-6.2 29.2-2.2 7.1 2.9 14.3 3 21.9 1.5 9.4-1.9 19-2.1 28.4 1 5.3 1.8 10.8 2.9 16.3 3.9 5.7 1 11.3 2.3 16.3 5.3 1.4 0.8 2.9 1.6 4.4 1.9 1.3 0.3 2.8-0.1 4.1-0.1q0.1-0.5 0.2-0.9z"/>
						</g>
					</g>
					<path id="&lt;Path&gt;" class="s4" d="m540.6 817.8q2.9 2.1 5.8 4.2-0.1 0.4-0.1 0.9c-1.4 0.1-2.9 0.4-4.2 0.1-1.5-0.3-3-1.1-4.4-1.9-5-3-10.6-4.3-16.3-5.3-5.5-1-11-2.1-16.3-3.9-4.5-1.5-9.1-2.2-13.6-2.3-3.2-10.6-11.5-15.6-18.2-18 6 0.8 12 1.7 18 3 18.3 3.9 34.4 12.2 49.3 23.2z"/>
					<g id="&lt;Group&gt;" style="opacity: .6;mix-blend-mode: multiply">
						<path id="&lt;Path&gt;" class="s3" d="m535.2 811.8c-19.6-13.6-41.5-20.5-65.1-22.2q-2.3-0.2-4.7-0.3c9.8-2.5 8.9-7.9 6.2-12.1 3.2 0.7 6.4 2.2 9.2 3.8 7.1 4.1 14.6 7 22.4 9.2 12.3 3.4 24.1 8.3 34 16.5 3.8 3.2 6.9 7.4 10.1 11.2 0.5 0.6 0.5 1.8 0.8 3.2-4.7-3.4-8.7-6.4-12.9-9.3z"/>
					</g>
				</g>
				<g id="&lt;Group&gt;">
					<g id="&lt;Group&gt;">
						<path id="&lt;Path&gt;" class="s2" d="m804.2 824.4c-6.3-4.8-13.6-6.7-21.5-6.8-3.2-0.1-6.3-0.5-9.5-0.9-6.1-0.9-11.6-3.7-17-6.5-9.4-4.8-19-6.1-29.1-2.1-7.1 2.8-14.3 3-21.9 1.5q-2.5-0.5-5.1-0.9c-7.8-1-15.6-0.7-23.4 1.9-5.2 1.8-10.8 2.9-16.3 3.9-5.7 1-11.2 2.3-16.3 5.3-1.4 0.8-2.8 1.5-4.4 1.9-1.3 0.3-2.7-0.1-4.1-0.2q-0.1-0.4-0.1-0.8c1.9-1.4 3.8-2.8 5.7-4.2 14.9-11 31.1-19.3 49.3-23.2q8.9-1.9 17.9-3c9.7-1.1 19.5-1.6 29.3-1.6 11.6 0 22.7 2.6 32.9 7.8 12.5 6.3 28 22.2 33.6 27.9z"/>
					</g>
					<g id="&lt;Group&gt;">
						<path id="&lt;Path&gt;" class="s3" d="m806.2 824.9c-3.3-3.6-18-21-35-29.9-9-4.7-18.9-7.5-29.1-7.7q-13.8-0.2-27.7 0.8-1.3 0-2.7 0.1-1.6 0.1-3.2 0.3c-22.4 2.1-43.2 9-61.8 22-4.2 2.9-8.3 5.9-13 9.3 0.4-1.5 0.3-2.6 0.8-3.3 3.3-3.8 6.3-7.9 10.1-11.1 10-8.3 21.7-13.1 34.1-16.6 7.8-2.1 15.2-5.1 22.3-9.1 3.6-2.1 7.8-3.9 11.8-4.3 6.1-0.5 12.3 0 18.4 0.9 3.4 0.5 6.9 0.9 10.3 1q4.2 0.2 8.5-0.2 2.9-0.3 5.8-0.3c4.9 0 9.1 1.8 12.9 4.9 4.7 3.9 9.5 8 14.7 11.1 12.2 7.1 19.1 17.8 22.6 31.1q0.1 0.5 0.2 1z"/>
					</g>
					<g id="&lt;Group&gt;">
						<g id="&lt;Group&gt;">
							<path id="&lt;Compound Path&gt;" fill-rule="evenodd" class="s1" d="m633.6 814.4c3.3-3.7 6.6-7.5 10.4-10.7 9.8-8.1 21.4-12.9 33.6-16.4 7.8-2.2 15.4-5.1 22.6-9.2 3.6-2 7.7-3.9 11.7-4.4 5.8-0.6 11.9-0.4 17.7 0.5 7.4 1.2 14.7 1.8 22.2 0.9 1.3-0.1 2.7-0.1 4-0.1 5.1 0.1 9.5 1.7 13.5 4.9 5.4 4.4 11.1 8.4 16.6 12.5 2.9 2.2 5.8 4.3 7.6 5.6 8.4 8.2 11.9 17.4 14.5 27.1 0.2 0.9-0.2 1.9-0.2 2.9-1-0.3-2.1-0.4-2.8-1-6.7-5.6-14.5-7.8-23.1-7.8-6.9 0.1-13.5-1.4-19.8-4.3-2.8-1.3-5.6-2.6-8.4-3.9-8.3-4-16.7-4.8-25.4-1.4-7.7 3-15.5 3.4-23.7 1.7-10.1-2.1-20.2-1.8-30.1 1.9-4.2 1.6-8.9 2.3-13.5 3-5.7 0.9-11.1 2.3-16.1 5.2-1.7 1-3.6 1.8-5.5 2.3-2.6 0.6-5.5-0.7-6.7-2.8-1.2-2.4-0.7-4.8 0.9-6.5zm13.1-3.9c19.5-13.6 41.4-20.5 65-22.3 10.1-0.7 20.3-1.1 30.4-0.9 10.2 0.2 20.1 3 29 7.7 17.1 8.9 31.8 26.3 35.1 29.9q-0.1-0.5-0.2-1c-3.5-13.3-10.4-24-22.6-31.1-5.2-3.1-10-7.2-14.7-11.1-3.8-3.1-8-4.9-12.9-4.9q-2.9 0-5.8 0.3c-6.3 0.6-12.5 0.1-18.8-0.8-6.1-1-12.3-1.4-18.4-0.9-4 0.4-8.2 2.2-11.8 4.3-7.1 4-14.5 7-22.3 9.1-12.4 3.5-24.1 8.3-34.1 16.6-3.8 3.2-6.8 7.3-10.1 11.1-0.5 0.7-0.4 1.8-0.8 3.3 4.7-3.4 8.8-6.5 13-9.3zm-11.1 11c1.4 0.1 2.8 0.5 4.1 0.2 1.6-0.4 3-1.2 4.4-2 5.1-2.9 10.6-4.2 16.3-5.2 5.5-1 11.1-2.1 16.3-3.9 9.5-3.2 19-2.9 28.5-1 7.5 1.5 14.8 1.3 21.9-1.5 10.1-4 19.7-2.7 29.1 2.1 5.4 2.8 10.9 5.6 17 6.5 3.1 0.4 6.3 0.8 9.5 0.9 7.9 0.1 15.2 2 21.5 6.8-5.6-5.7-21.1-21.6-33.6-27.9-10.2-5.2-21.3-7.8-32.9-7.8-15.9 0-31.6 1.2-47.2 4.6-18.2 3.9-34.4 12.2-49.3 23.2q-2.8 2.1-5.7 4.2 0 0.4 0.1 0.8z"/>
						</g>
					</g>
					<path id="&lt;Path&gt;" class="s4" d="m700.1 808.7c-7.8-1-15.6-0.7-23.4 1.9-5.2 1.8-10.8 2.9-16.3 3.9-5.7 1-11.2 2.3-16.3 5.3-1.4 0.8-2.8 1.5-4.4 1.9-1.3 0.3-2.7-0.1-4.1-0.2q-0.1-0.4-0.1-0.8c1.9-1.4 3.8-2.8 5.7-4.2 14.9-11 31.1-19.3 49.3-23.2q8.9-1.9 17.9-3c-14.7 5.5-13.1 12.8-8.3 18.4z"/>
					<path id="&lt;Path&gt;" class="s3" d="m714.4 788.1q-1.3 0-2.7 0.1-1.6 0.1-3.2 0.3c0 0 23.4-7.2 5.9-0.4z"/>
					<g id="&lt;Group&gt;" style="opacity: .6;mix-blend-mode: multiply">
						<path id="&lt;Path&gt;" class="s3" d="m708.5 788.5c-22.4 2.1-43.2 9-61.8 22-4.2 2.9-8.3 5.9-13 9.3 0.4-1.5 0.3-2.6 0.8-3.3 3.3-3.8 6.3-7.9 10.1-11.1 10-8.3 21.7-13.1 34.1-16.6 7.8-2.1 15.2-5.1 22.3-9.1 3.6-2.1 7.8-3.9 11.8-4.3 6.1-0.5 12.3 0 18.4 0.9 3.4 0.5 6.9 0.9 10.3 1-31.3 2.1-33 11.2-33 11.2z"/>
					</g>
				</g>
			</g>
			<g id="&lt;Group&gt;">
				<path id="&lt;Path&gt;" class="s5" d="m812.5 244c0 1.9-0.5 3-1.7 3.9q-0.4 0.4-1 0.8c-7.1 4.3-15.1 5.4-23 7-20.9 4.3-42.1 4.8-63.4 4.3-33.4-0.8-66.7-4.2-99.9-7.5-21.1-2.2-42.2-1.8-63.2 1.3-3.1 0.5-6.3 0.7-9.6 1v-133.4c4.6-0.5 9.2-1.1 13.7-1.5q1.8-0.2 3.7-0.3c22.7-1.6 45.1 0.6 67.5 4.6 24 4.2 48.1 7.3 72.5 7.9 19.8 0.5 39.3-2.2 58.8-5.6 14.6-2.5 29.3-4.4 44.2-2.7 0.5 0.1 0.9 0.1 1.4 0.1v61.3c0 19.6-0.1 39.2 0 58.8z"/>
				<g id="&lt;Group&gt;">
					<path id="&lt;Path&gt;" class="s0" d="m548.5 111.6v649h-17.1v-649z"/>
				</g>
				<g id="&lt;Group&gt;">
					<g id="&lt;Group&gt;">
						<path id="&lt;Compound Path&gt;" fill-rule="evenodd" class="s1" d="m529.3 110c7.1 0 14.1 0 21.3 0 0 3.4 0 6.5 0 9.9 4.4-0.6 8.5-1.2 12.7-1.6 23.2-2.1 46.2-0.3 69.3 3.4 21.7 3.5 43.7 6.1 65.6 8.1 22.8 2 45.4-0.9 67.8-5 13.4-2.4 26.8-4.1 40.4-3.2 8 0.5 8.2 0.7 8.2 8.5 0 38.4 0 76.9 0.1 115.3 0 2-0.9 3-2.4 4.1-6.4 4.3-13.8 5.9-21.3 7.5-29.8 6.6-59.9 6-90 4.1-28.8-1.8-57.5-4.9-86.2-7.3-17.4-1.5-34.7-0.6-52 1.8-3.9 0.5-7.9 1.1-12.3 1.6q0 2 0 3.9 0 247 0.1 494c0 7.8 0 7.9-8 7.9-3.6 0-7.1-0.1-10.7 0-1.8 0-2.6-0.8-2.6-2.5 0-1.4-0.1-2.7-0.1-4q0.1-321.2 0.1-642.4c0-1.3 0-2.6 0-4.1zm283.2 13.9q-0.7 0-1.4-0.1c-14.9-1.7-29.6 0.2-44.2 2.7-19.5 3.4-39 6-58.8 5.6-24.4-0.6-48.5-3.7-72.5-7.9-22.4-4-44.8-6.2-67.5-4.6-5.8 0.4-11.6 1.2-17.4 1.8 0 44.7 0 88.9 0 133.4 3.3-0.3 6.5-0.5 9.6-1 21-3.1 42.1-3.5 63.2-1.3 33.2 3.3 66.5 6.7 99.9 7.5 21.3 0.5 42.5 0 63.4-4.3 7.9-1.6 15.9-2.7 23-7 1.9-1.2 2.7-2.4 2.7-4.7-0.1-19.6 0-39.2 0-58.9 0-20.2 0-40.5 0-61.2zm-281.1-12.3c0 216.6 0 432.8 0 649 5.8 0 11.4 0 17.1 0 0-216.4 0-432.7 0-649-5.8 0-11.4 0-17.1 0z"/>
					</g>
				</g>
				<g id="&lt;Group&gt;" style="opacity: .7;mix-blend-mode: multiply">
					<path id="&lt;Path&gt;" class="s6" d="m810.8 247.9q-0.4 0.4-1 0.8c-7.1 4.3-15.1 5.4-23 7-20.9 4.3-42.1 4.8-63.4 4.3-33.4-0.8-66.7-4.2-99.9-7.5-21.1-2.2-42.2-1.8-63.2 1.3-3.1 0.5-6.3 0.7-9.6 1v-133.4c4.6-0.5 9.2-1.1 13.7-1.5 8.8 25.9 18.3 52.1 38.6 71.5 11.6 11 25.9 19.1 42 20.9 14.1 1.5 28.3-1.4 42.5-2.1 12.6-0.6 24.5 0.7 36 6.2 12.4 5.9 22.9 14.9 35.3 20.8 16.8 8 34.3 10.2 52 10.7z"/>
				</g>
				<g id="&lt;Group&gt;" style="opacity: .5;mix-blend-mode: multiply">
					<path id="&lt;Path&gt;" class="s0" d="m548.5 111.6v649h-8.6v-649z"/>
				</g>
				<g id="&lt;Group&gt;">
					<path id="&lt;Compound Path&gt;" class="s1" d="m567.6 207.2c3.4 1.2 8.2 2 13.4 1.5 7.6-0.7 12-4.3 12-9.3 0-4.6-3.1-7.2-10.8-8.9-9.3-2-15.2-5.1-15.2-12 0-7.7 7.4-14.6 18.6-15.5 5.9-0.5 10.2 0.5 12.7 1.6-0.8 2.1-1.2 3.1-2 5.2-1.9-0.7-5.8-2-11-1.6-7.8 0.7-10.8 5.2-10.8 8.5 0 4.6 3.5 6.3 11.4 8.3 9.8 2.4 14.7 6.3 14.7 13.5 0 7.6-6.6 14.1-20.1 15.5-5.6 0.6-11.7 0-14.7-1.2 0.7-2.3 1.1-3.4 1.8-5.6z"/>
					<path id="&lt;Compound Path&gt;" class="s1" d="m626 168.1c-7-0.1-10.5-0.2-17.5 0 0-2.2 0-3.3 0-5.4 17-0.3 25.6 0.1 42.6 1.2 0 2.1 0 3.2 0 5.3-7-0.4-10.5-0.6-17.6-0.8 0 17.4 0 26.2 0 43.6-3-0.1-4.5-0.1-7.5-0.2 0-17.5 0-26.2 0-43.7z"/>
					<path id="&lt;Compound Path&gt;" fill-rule="evenodd" class="s1" d="m664.7 198.4c-2.4 6-3.6 9-6 15-3-0.2-4.6-0.3-7.7-0.5 7.9-19.1 11.8-28.7 19.6-47.7 3.6 0.3 5.4 0.4 9 0.7 7.8 20.2 11.8 30.4 19.6 50.6-3.2-0.3-4.7-0.4-7.9-0.6-2.5-6.4-3.7-9.6-6.2-15.9-8.1-0.7-12.2-1-20.4-1.6zm18.9-3.5c-2.3-5.8-3.4-8.7-5.6-14.6-1.3-3.3-2.2-6.2-3-9.1-0.1-0.1-0.1-0.1-0.2-0.1-0.9 2.9-1.8 5.8-2.9 8.7-2.3 5.5-3.4 8.2-5.7 13.8 7 0.5 10.5 0.7 17.4 1.3z"/>
					<path id="&lt;Compound Path&gt;" fill-rule="evenodd" class="s1" d="m712 168.9c3.7-0.4 9.1-0.4 14.2-0.2 8 0.4 13.1 1.7 16.7 4.5 2.9 2.2 4.5 5.6 4.5 9.4 0 6.4-4.8 10.7-10.8 12.3 0 0.1 0 0.1 0 0.2 4.4 1.5 7 5 8.4 10.1 1.9 6.8 3.3 11.6 4.5 13.5-3.1 0-4.6 0-7.7-0.1-1-1.4-2.3-5.7-3.9-11.8-1.7-6.8-4.8-9.4-11.5-9.9-2.8-0.2-4.2-0.2-7-0.4 0 8.5 0 12.8 0 21.3-3-0.2-4.5-0.3-7.4-0.5 0-19.3 0-29 0-48.4zm7.4 22.8c3 0.2 4.5 0.3 7.6 0.4 7.9 0.3 13-3.3 13-8.9 0-6.3-5.4-9.2-13.3-9.6-3.5-0.2-6.1 0-7.3 0.2 0 7.2 0 10.8 0 17.9z"/>
					<path id="&lt;Compound Path&gt;" class="s1" d="m773.9 174.3c-7 0.4-10.5 0.5-17.5 0.7 0-2.2 0-3.3 0-5.4 17-0.3 25.6-0.8 42.6-3.5 0 2.2 0 3.3 0 5.4-7 1.1-10.5 1.5-17.6 2.2 0 17.4 0 26.2 0 43.6-3 0.3-4.5 0.4-7.5 0.6 0-17.5 0-26.2 0-43.6z"/>
				</g>
			</g>
			<g id="&lt;Group&gt;">
				<g id="&lt;Group&gt;">
					<g id="&lt;Group&gt;">
						<path id="&lt;Compound Path&gt;" fill-rule="evenodd" class="s3" d="m542.3 714.4c-8.1 4-16.1 8.1-24.2 12.2q-5.6 3-11.3 5.9c-2.1 1.1-4.3 2.1-6.3 3.4-1.6 1-2.5 0.8-3.9-0.4-11.4-9.3-17.8-22-23.8-35-1.7-3.6-3.2-7.3-4.7-11-1.7-4-3.3-8-5-11.9-1.4-3.2-3.4-6-5-9.1-6.1-11.7-9.9-24.3-14.3-36.6-1.4-4-2.7-8-4.1-12-2.9-8.5-5.5-17.1-6.6-26-1.5-11.6-5.2-22.4-10.4-32.8q-0.6-1.2-1.2-2.5-3-6.4-5.4-13-2.8-7.7-4.5-15.8c-0.8-3.5-2.1-6.9-3.3-10.3-2-5.3-3.9-10.7-6.3-15.8-1.4-3-3.4-5.8-5.6-8.2-2.4-2.8-6.6-4-7.4-8.4q-0.6 0.2-1.2 0.5c0.5 1.4 0.8 2.8 1.4 4.2 0.1 0.5 0.6 0.9 1.1 1.2 6.9 3.9 9.7 10.5 12.5 17.5 3.8 9.7 7.2 19.6 9.7 29.8 0.4 1.8 1 3.6 1.6 5.4 0.6 1.6 1.2 3.3 1.8 5.1-4.8 0.9-9.5 1.5-14.1 2.7-7.9 2-15.6 1.6-23.5 0.1-8.9-1.7-18-2.3-26.7-4.3-12.4-2.9-24.6-6.7-36.8-10-6.4-1.8-12.7-4-19.2-5.1-3.6-0.5-5.6-2.1-7.7-4.6-25.4-29.8-51-59.5-76.3-89.4-8-9.5-15.4-19.4-23-29.2-0.9-1.1-1.4-2.5-1.9-3.9q-6.5-16.5-13-33c-2.1-5.4-4.2-10.8-6.6-16.7q1.1-0.2 2.2-0.5c3.4-0.7 6.7-1.4 10-1.8 10.2-1.2 20.3-2.7 30.5-3 10-0.3 20 0.5 29.9 1.1 30.3 2.1 59.5 9.8 88.9 16.1 32.4 6.9 64 16.2 95 27.8 11.4 4.3 22.1 10.3 31.8 17.6 4.3 3.3 7.8 7.5 11.7 11.3 0.9 0.8 1.8 1.5 2.8 2.3q0.4-0.4 0.7-0.8c-2.9-3.3-5.8-6.5-9.2-10.3 4.7-0.8 8.9-1.6 13.1-2.2 4.7-0.7 4.8-0.6 6.9 3.7 4.6 9.6 6.4 20 8.4 30.4 2.9 15.4 4 31 4 46.7 0 15.9 2.5 31.4 5.9 46.8q10.1 45 21 89.9c1.5 6.4 2.7 13 5.9 19 3 5.5 3.5 11.7 2.8 17.8-0.6 5 0.5 9.5 3.4 13.6 5.8 8.3 9.7 17.4 11.5 27.4 0.4 2.3-0.2 3.1-2 4.1zm-251.3-188.4c-4.5-23.5-9.1-47.1-13.6-70.7q-0.6-2.9-1.1-5.8-0.3 0.1-0.7 0.1c0.1 0.6 0.1 1.3 0.2 1.9q0.1 0.3 0.1 0.6c0.8 5 1.4 10 2.3 15 3.6 18.8 7.3 37.6 11.1 56.4 0.2 1 0.7 1.9 1.1 2.8q0.3-0.1 0.6-0.3zm8.5-48.6c-0.2 1-0.4 1.6-0.4 2.3q-0.9 19.6-1.7 39.2c0 0.9 0.3 1.9 0.5 3.3 2-3.3 3.3-41.7 1.6-44.8zm115.4-22.2c-6.5 1.6-20.3 21.8-18 27.1 3.9-10.8 9.7-19.8 18-27.1zm28.2-21.2c-0.6-0.2-1.3-0.4-1.9-0.5-4.6-0.4-9.1 0.1-13.4 1.9-18.9 7.9-32 21.3-39 40.7-0.2 0.6-0.2 1.2-0.3 1.9q0.5 0.1 0.9 0.3c0.8-1.8 1.7-3.6 2.4-5.4 6.5-16.4 18.3-27.7 34.1-35 4.5-2.1 9-3.2 14-2.9 1 0.1 2.1-0.1 3.1-0.1q0.1-0.5 0.1-0.9z"/>
					</g>
				</g>
				<g id="&lt;Group&gt;">
					<path id="&lt;Path&gt;" class="s7" d="m335.2 647.6c-0.3 0.9-1 1.8-1.5 2.7-4.8 7.5-11.3 13.3-18.6 18.1-14.4 9.3-28.7 19-44.4 26.2-20.1 9.3-40.3 18.3-60.5 27.4-3 1.3-5.8 3.9-9.4 2.8-4-1.2-8.4-2.1-11.7-4.5-5.3-3.8-10.1-8.3-14.6-13-4.4-4.7-8.4-9.9-12.3-15q-0.2-0.3-0.3-0.5c-1.7-2.3-3-4.9-4.1-7.5-2.4-5.6-1.7-6 2.9-8.9 12.8-8 25.8-15.7 38.7-23.6 8.4-5.2 16.7-10.7 25.2-15.8 3.3-2 7-3.2 10.3-5.2 7-4.3 8.1-9.5 3-16-7.1-9-14.3-17.9-22-26.3q-7.1-7.8-14.2-15.6-0.2-0.2-0.5-0.5-0.1-0.1-0.2-0.3c-12.7-13.7-25.4-27.2-37.8-41.1-11.5-12.7-22.5-26-33.5-39.1-2.6-3-4.7-6.3-7-9.5-1.2-1.8-2.3-3.7-3.2-5.6-3.2-6.4-4.7-13.5-5.8-20.7-2.5-16.8-0.4-33.3 4.8-49.4 5.4-16.6 16.2-28.8 31-37.7 2.8-1.7 5.6-3.3 8.5-5q0.3 0.1 0.7 0.2c-0.9 4.1 1.5 6.9 3.5 9.9 8 12.2 15.5 24.7 24 36.5 8.1 11.4 17.1 22.4 26.1 33.1 16.2 19.3 32.8 38.3 49.1 57.5 10.8 12.8 22.1 25.3 32 38.9 16.5 22.4 29.2 47.1 39.2 73.2 1.1 2.9 2.1 6 3.1 9 2.8 8.5 2.1 16.9-0.5 25.3z"/>
				</g>
				<g id="&lt;Group&gt;">
					<path id="&lt;Path&gt;" class="s7" d="m235.4 628.1c-3.6 2.4-7.8 4-11.6 6.2-6.5 3.9-12.8 8.1-19.3 12.1-15.5 9.5-30.9 19-46.5 28.3-2.7 1.6-3.5 3.6-3.1 6.3 0.2 1.4-0.3 1.9-1.4 2.6-4.6 3.2-9 6.5-13.5 9.8-0.5 0.3-0.9 0.8-1.4 1-8.8 3.9-17.7 7.8-26.8 11.8-0.9-2.2-1.7-4.4-2.5-6.7-2.8-7.6-5.7-15.2-8.4-22.9-0.5-1.3-0.8-2.6-1.1-3.9q-0.3-1.3-0.6-2.6c-0.8-3.9 0.6-6.9 4-8.7 5-2.8 10.1-5.5 15.3-7.8 13.8-6.2 27.7-12.2 41.1-19.3 7.7-4.1 15.4-8.1 22.6-13.2 3.1-2.2 3.9-5 3.1-8.3-1.3-5.1-2.5-10.3-4.4-15.2-6-16-12.4-31.9-18.4-47.9q-1.4-3.6-2.6-7.2c-2.1-5.9-4-11.8-6-17.7-0.1-0.3-0.1-0.6-0.2-1.3 6.8 7.2 13.3 13.9 19.7 20.8 8.3 9 16.6 17.9 24.8 27q2.4 2.6 4.7 5.2c10.2 11.4 20.4 23 30.1 34.9 1.7 2 3.3 4.1 4.7 6.4 2.5 4.1 1.8 7.7-2.3 10.3z"/>
				</g>
				<g id="&lt;Group&gt;">
					<g id="&lt;Group&gt;">
						<path id="&lt;Compound Path&gt;" fill-rule="evenodd" class="s8" d="m593.3 474.1c-0.9 0.3-1.9 0.6-2.8 0.7-4.5 0.2-7.4 2.8-9.7 6.5q-5.3 8.8-11 17.4c-2.4 3.8-4.1 4.3-8.3 2.6-4.7-1.9-9.5-3.8-14-6.3-8-4.3-16.5-8-23.3-14.5-0.6-0.7-1.6-0.9-2.6-1.1 0.3 2.5 2.5 3.2 4 4.6 1.5 1.5 3.3 2.8 5.2 4.4-7.5 1.3-15 2.1-22.3 3.7-4.3 0.9-8.6 2-12.8 3.6-0.2-18.4-1.7-36.4-5.7-54.3 2.3-0.6 4.5-1.1 6.7-1.6q1.9-0.4 3.8-0.9c1.1-0.3 2.2-0.6 3.3-0.9q0 0 0 0 0.6-0.1 1.1-0.3c3.5-0.7 6-2.5 8.1-5.4 1.4-1.9 3.3-3.4 5.3-4.9q0.6-0.5 1.3-1c-0.5 3.9 0.3 7.2 2.8 10.1 0.3 0.4 0.1 1.3 0.1 1.9-0.4 2.8-0.8 5.7-1.1 8.6-0.1 0.7 0.1 1.5 0.2 2.3q0.5 0 1 0c0.6-3.6 1.2-7.2 1.8-10.8q2.3 0.4 4.5 0.8 0.2-0.5 0.3-0.9c-0.9-0.5-1.8-1-2.7-1.5-5.3-2.4-6.7-8.9-2.9-13.3 2-2.3 5.3-3.1 7.8-1.8 3 1.7 4.8 5.8 4.1 9-0.4 1.7-0.6 3.5-0.5 5.2 0.1 2 1.6 2.8 3.1 1.7 4.1-3 8.1-6.1 11.8-9.5 1-0.9 1.2-2.8 1.4-4.4 0.3-3.2 0.2-6.5 0.6-9.8 1.1-8.2 7.7-11.9 15.3-8.5 2.2 1 4.4 2.1 6.5 3.5q9.3 6.2 19.8 10.1c1.9 0.6 2.8 1.6 2.8 3.5 0 5.9 0.1 11.8 0.1 17.7 0 0.7-0.2 1.5-0.5 2.1-2.7 5.1-1.6 10.3-0.8 15.5 0.6 3.6 1.3 7.2 1.7 10.9 0.4 3.3-0.4 4.3-3.5 5.3zm-16.7 7.4c-0.3-1.3-0.4-2.7-0.9-3.9-0.4-0.8-1.1-1.8-1.8-2-5.4-1.7-8.2-5.9-10.7-10.4-0.3-0.6-1.4-1.5-1.6-1.3-0.7 0.3-1.4 1.1-1.6 1.8-0.7 4.8-0.6 9.6 1.3 14.1 2 5 8.1 6.6 12.4 3.5 0.9-0.6 1.8-1.1 2.9-1.8zm10.3-38.5c-0.8-1.2-1.3-2.3-2.1-3.1-0.3-0.2-1.7 0.2-1.8 0.5-0.7 2.3-1.5 4.7-1.5 7 0 1.7 1.9 2.1 2.9 0.7 1-1.5 1.6-3.2 2.5-5.1zm5.8-5.1c-0.2-4.8-3.3-7.7-8.2-7.9-2.4 0.4-4.9 0.8-7.3 1.3-0.5 0.1-1.1 0.7-1.2 1.2-0.1 0.3 0.4 1.1 0.8 1.3 4.4 2.1 8.8 4.2 13.2 6.1 1.5 0.7 2.7-0.3 2.7-2z"/>
					</g>
				</g>
				<g id="&lt;Group&gt;">
					<path id="&lt;Path&gt;" class="s7" d="m221.7 806.7c-0.5 8.4-4.9 9.3-11.1 9.5-12.5 0.3-24.9 0.2-37.4 0-2.1 0-4.5-0.8-6.3-1.9-15.4-9-28-20.6-33.9-38-0.4-1.1-0.9-2-1.2-3.1-1.9-5.7-5.3-10.1-10.5-13.2-5.1-3-9-6.7-11.9-11-4.4-6.5-6.7-14.3-7.8-22.7-0.2-1.7-0.1-3.5-0.2-5.3-0.1-2.3 0.4-4.2 1.4-5.8 1.1-1.8 2.8-3.3 4.9-4.4q0.2 0 0.3-0.1 0.5-0.2 1-0.5c6.7-3.5 13.6-6.8 20.4-10.2 2.6-1.3 5.4-2.4 8.3-3.7-0.1 3 0.2 6.4 1 9.8 3.1 13.3 13 27.8 28.3 28.9 0.4 5 0.5 9.9 1.2 14.8 1 5.9 2 11.8 3.9 17.5 4 11.8 15.9 18.7 28.2 17.1 0.7-0.1 1.5-0.1 2 0.2 3 1.5 5.8 3.4 8.9 4.5q3.3 1.1 5.6 2.9c3.2 2.4 4.9 5.9 4.7 10.9 0 1.2 0.3 2.5 0.2 3.8z"/>
				</g>
				<g id="&lt;Group&gt;">
					<path id="&lt;Path&gt;" class="s7" d="m105.1 766c-2.5 3.2-4.5 6.2-7 8.6-7 7-15.3 11.8-24.8 14.5-0.8 0.2-2 0.1-2.6-0.3-3.8-2.8-7.6-5.6-11.1-8.7-6.2-5.5-10.8-12-13.2-20-1.2-3.9-3.7-6.8-6.8-9.3-10.5-8.4-15.9-19.7-18.9-32.5-0.5-2.5 0.3-4.5 2.2-5.9 3.4-2.5 6.8-4.9 10.2-7.2 8.5-5.7 17-11.4 25.6-17 3.4-2.3 4.5-2.1 7.3 1.5-4.8 2.7-4.4 7.2-3.7 11.4 1.5 8.4 5.1 15.8 12.2 20.9 1.7 1.3 3.7 2.3 5.8 2.9 1.5 0.4 1.9 1.1 2.2 2.6 1 5.9 2.4 11.8 4.4 17.5q1.8 5.4 4.6 10.6c2.8 5.4 6.4 9.5 13.6 10.4z"/>
				</g>
				<g id="&lt;Group&gt;">
					<path id="&lt;Path&gt;" class="s0" d="m166.3 816.8h-85.5c0-1-0.1-2 0-3q0.1-0.6 0-1c-0.2-1.3-1.1-1.8-2.8-1.8-10.5 0.1-21 0-31.4 0q-20.8 0-41.5 0c-0.7 0-1.3-0.1-2.1-0.1v-13.8c3.2 0 6.5 0 9.9 0.1 21.4 0.5 42.7-0.6 63.3-7.3 17-5.5 28.7-16.8 35.4-33.4 0.1-0.3 0.3-0.5 0.4-0.8 3.6 2.6 6.9 5.1 10.3 7.4 0.9 0.6 1.6 1.2 2.3 1.9 1.8 1.7 3.2 3.8 4.2 6.2 1.7 4.2 3.4 8.3 5.3 12.4q0.3 0.7 0.6 1.3 1.1 2.5 2.4 4.8 0.2 0.2 0.3 0.4c2.7 4.7 6.2 8.9 10.4 12.4q1.4 1.2 2.8 2.3 0.2 0.1 0.3 0.2c2.7 2.2 5.4 4.2 8.1 6.3 2.5 1.8 4.9 3.6 7.3 5.5z"/>
				</g>
				<g id="&lt;Group&gt;">
					<path id="&lt;Path&gt;" class="s8" d="m630.7 806.9c-2 3.2-4.2 3.7-8 2.9-4.6-1.1-9.3-1.7-14-2.4-5.4-0.7-10.5-2.4-15.3-5.2-0.8-0.5-1.6-0.7-2.5-1.1q-0.2 0.3-0.4 0.5c0.4 0.4 0.7 0.9 1.1 1.2 4.4 2.8 9 4.9 14.2 5.7 4.9 0.8 9.8 1.6 14.6 2.5 1 0.1 1.9 0.9 2.8 1.3-0.6 0.9-1.1 2.1-1.9 2.6-6 3.9-12.6 4.3-19.3 2.3-4.2-1.3-8.2-3.5-12.4-4.5-6.1-1.5-9.2-6.5-13.5-10.2q-0.9-0.8-1.8-1.6-0.3 0.4-0.7 0.6c1 1.3 2 2.5 3 3.7 3.1 3.7 6.3 7.3 9.3 11 1.9 2.3 1.4 3.4-1.3 4.7-3 1.4-5.8 1.6-8.7-0.2-2.1-1.4-4.4-2.5-6.1-4.2-3.4-3.4-7.6-4.3-12-4.8-2-0.2-4.1-0.6-6.2-0.7-4.2-0.3-7.7-1.9-10.5-4.6q-1.9-1.9-3.4-4.4c-4-7.1-7.5-14.4-11-21.8-2.2-4.8-4-9.9-5.8-15-0.8-2.2-1.1-4.6-1.6-6.8 7.7-3.2 15.3-6.2 22.5-10 3-1.6 5.8-3.3 8.6-5.2 2.4 3 5 5.9 7.2 9.1 4.1 6.3 8 12.9 12 19.3 0.7 1.2 1.4 2.4 2.2 3.4 4.7 5.4 9.1 10.9 14.1 16 1.9 2.1 4.8 3.6 7.6 4.4 11.4 3.1 22.9 6.3 34.9 6.8 3.2 0.2 4 2 2.3 4.7z"/>
				</g>
				<g id="&lt;Group&gt;">
					<path id="&lt;Path&gt;" class="s9" d="m642.8 392.9c-0.3 1.1-0.3 2.4-0.8 3.5-2.6 5.9-7.5 8.6-13.8 9.2-1.6 0.2-3.3 0.2-5 0.4-0.6 0.1-1.2 0.5-1.8 0.8 0.5 0.5 0.9 1.1 1.4 1.5 1.5 1 3.3 1.7 4.6 2.9 2.2 2.1 1.7 3.7-1.2 4.7-3.9 1.5-7.9 1.5-12 0.5-8-1.9-15.2-5.4-22.1-9.6q-3.9-2.4-7.8-5.2c-4.2-2.9-8.4-5.9-13-8.1-7.5-3.8-15.5-4.5-23.7-1.4-0.7 0.3-2.1 0-2.9-0.6-6.9-5.2-14.8-8.5-22.6-11.9-2.4-1-4.9-1.6-7.8-2.6 1.6-0.9 2.8-1.8 4.2-2.5q0.4-0.2 0.8-0.3c9.9-4.2 19.8-5.1 29.9-0.3 11.4 5.5 23.1 10.7 35.5 13.8 11.8 2.9 23.8 5.6 35.8 7.8 7.3 1.4 14.8 1.1 21.6-3.1q0.3 0.2 0.7 0.5z"/>
				</g>
				<path id="&lt;Path&gt;" class="s10" d="m110.1 707.4q-1.5 0.9-3 1.8c-0.6 0.4-1.3 0.8-1.9 1.3-3.6 2.3-5.6 5.6-5.6 10 0 1.2-0.3 1.8-1.7 1.9-4 0.3-8 0.5-12 1q-3.1 0.4-5.8-0.4c-3.3-0.9-6-3-8.3-5.8-4.5-5.4-7.6-11.6-7.9-18.8-0.2-3.3 0.6-5.9 3.7-7.6 9.4-5.3 18.7-10.8 28.1-16.2q0.8-0.5 1.6-1c0.1 0 0.3 0 0.3 0 4.2 11.3 8.3 22.5 12.5 33.8z"/>
				<g id="&lt;Group&gt;" style="opacity: .7;mix-blend-mode: multiply">
					<path id="&lt;Path&gt;" class="s6" d="m461.1 679.6q-0.5-0.4-1.1-0.7c-2-1.4-4.2-2.6-5.9-4.3-11.7-11.3-20.5-24.4-25.9-40-5.2-14.5-7.6-29.5-9.8-44.6-1.6-11.6-3.8-23-7.5-34.1-0.2-0.7-0.3-1.4-0.6-2.3 1.6-0.3 3-0.7 4.4-1q0.4-0.1 0.9-0.1c0.5-0.1 1.4 0.6 1.6 1.1 2.9 6.2 5.6 12.4 8.4 18.6 3.3 7.5 4.4 15.6 6 23.6 1.5 7.2 3.1 14.4 5.4 21.3q6.7 20.8 14.4 41.2c2.3 6.3 5.7 12.1 8.7 18.2 0.4 0.9 0.9 1.8 1 3.1z"/>
				</g>
				<g id="&lt;Group&gt;">
					<path id="&lt;Path&gt;" class="s9" d="m542 390.9c-3.1 0.9-5.9 1.4-8.6 2.4q-1.6 0.6-3.1 1.4c-3.6 2-6.3 4.9-7.8 9-2.3 6.4-4.7 12.8-6.7 19.2-0.6 2.1-1.6 3.9-2.7 5.7-1 1.7-2.2 3.2-3.4 4.8-0.5 0.7-1.3 1.3-2.1 1.5-5.8 1.6-11.7 3.2-17.6 4.8-0.3-0.8-0.4-1.1-0.5-1.3-1.5-3.6-1.2-6.1 2.7-8.7 5.8-3.9 8.1-9.8 8.5-16.5q0-1.5 0-3c-0.2-5.2-0.5-10.4-0.2-15.6 0.4-5.3 2.2-10.2 6.4-14.1 2.2-2 4.6-2.6 7.6-2q1.2 0.3 2.3 0.6c6.3 1.7 12 4.8 17.8 7.7 2.5 1.2 4.8 2.7 7.4 4.1z"/>
				</g>
				<g id="&lt;Group&gt;">
					<path id="&lt;Path&gt;" class="s9" d="m513 375.8c1-4.5 3.2-7.6 6.8-9.9 14.8-9.7 35.6-9.2 50.4 1.4 4.7 3.4 9.8 6 15.3 7.8 8 2.7 16 3.5 24.2 0.5 4.6-1.7 9.2 0.2 11.8 4.3 2.3 3.6 1.9 7.1-1.2 10-2.1 1.8-4.4 3.7-7.2 3-12.4-3.1-24.8-5.9-36.9-9.7-9.2-2.9-17.9-7.1-26.8-11.1-10.7-4.7-21.1-3.8-31.5 0.9-1.6 0.7-3 1.7-4.9 2.8z"/>
				</g>
				<path id="&lt;Path&gt;" class="s10" d="m185.4 720.5c-2 3.3-4 6.5-6.1 9.7-0.3 0.5-1 0.8-1.5 1-9.5 3.3-18 1.9-24.8-3.9q-2.9-2.4-5.3-5.9c-3.6-5-6.1-10.3-7.4-16.2q-0.4-1.7-0.7-3.3c-0.5-3.7 0.2-6.7 3.2-9 4.1-3 8.2-6 12.5-9.1q0.2 0.5 0.5 0.9c2.1 3.8 3.7 6.6 5.4 9.2 0 0.1 0 0.1 0 0.1 0.9 1.3 1.8 2.6 2.8 3.9q0.1 0.1 0.2 0.3 0.7 0.8 1.4 1.7c2.9 3.5 6.8 7.5 12.9 13.7q0.8 0.8 1.6 1.6c1.6 1.6 3.4 3.4 5.3 5.3z"/>
				<g id="&lt;Group&gt;">
					<path id="&lt;Path&gt;" class="s3" d="m550.2 740.3c-2.8 2.3-5.7 4.5-8.8 6.1q-2.7 1.3-5.4 2.6-1.1 0.5-2.3 1.1-0.1 0-0.2 0.1c-3.7 1.6-7.4 3.2-11.1 5-2.4 1.1-4.4 0.8-6.4-0.9-2-1.7-4-3.4-5.9-5.2-3.6-3.3-7.2-6.6-10.7-9.9q0.2-0.6 0.4-1.2c6.6-3.4 13.1-6.9 19.7-10.3 8.5-4.4 17-8.8 25.6-13.3 2.3 7.6 4.6 14.7 6.5 21.9 0.3 1.2-0.5 3.2-1.4 4z"/>
				</g>
				<g id="&lt;Group&gt;">
					<path id="&lt;Path&gt;" class="s7" d="m200.6 782.6c-12.5 1.5-23.2-5.2-27.3-16.9-3.2-9.1-4-18.7-4.6-28.3-0.1-1.7 0.5-2.5 2.3-2.8q1.2-0.1 2.3-0.3c1.7-0.4 3.3-0.8 5-1.3 6.3-2 12.4 0.5 15.4 6.4 2.2 4.2 2.9 8.8 3.3 13.4 0.6 7.7 1.1 15.3 1.9 23q0.2 1.2 0.5 2.4c0.3 1.4 0.8 2.9 1.2 4.4z"/>
				</g>
				<g id="&lt;Group&gt;">
					<path id="&lt;Path&gt;" class="s9" d="m553.6 406.2c-2.9 2.8-3.5 6.7-3.8 10.5-0.1 2.3-0.1 4.7-0.1 7-0.1 2.1-0.9 3.8-2.6 5.1-3.3 2.5-6.5 5.1-9.8 7.7q-0.4-0.2-0.8-0.4c0.1-1.7 0.2-3.4 0.5-5.1 0.8-4.1-1.3-8.8-5-10.8-3.3-1.7-7.1-0.5-10.3 2.8-1.2 1.2-2.9 2-4.6 3.1-0.1-0.5-0.3-0.8-0.2-1 2.3-6.9 4.5-14 7.1-20.8 1.4-3.5 3.9-6.4 7-8.4 3.2-2.1 7-3.2 10.8-3.1 1.3 0.1 3 0.5 3.9 1.4 2.8 2.7 5.4 5.6 7.9 8.6q0.3 0.2 0.5 0.5c0.8 0.9 0.5 1.9-0.5 2.9z"/>
				</g>
				<g id="&lt;Group&gt;">
					<path id="&lt;Path&gt;" class="s7" d="m110.2 755.4c-0.9 2.3-2.1 4.6-3.1 7-0.7 1.7-2 1.9-3.7 1.6-3.9-0.9-6.7-3.1-8.6-6.4-2.8-4.5-4.9-9.3-6.6-14.2-2-5.8-3.4-11.8-4.5-18 4.3-0.3 8.4-0.7 12.6-1.1q0.9-0.1 1.8-0.1 0.6-0.1 1.2-0.2 0.1 1.1 0.3 2c0.5 2.7 0.9 5.2 1.5 7.8 1.4 7 4.3 13.5 8.7 19.2 0.4 0.6 0.6 1.7 0.4 2.4z"/>
				</g>
				<g id="&lt;Group&gt;">
					<path id="&lt;Path&gt;" class="s9" d="m628.1 416.9c-1.4 2.5-3.3 3.1-5.3 3.7-5.3 1.5-10.7 1.1-16.2 0.6-7.1-0.6-13.3-3.9-19.6-6.8-6.1-2.8-11.7-6.5-17.6-9.7-4.1-2.2-8.3-3-12.4-1.1q-0.1 0-0.2 0.1c-3.1-3.4-6-6.7-9.2-10.2 3.8-1.8 7.8-2.3 12-2 8 0.6 14.6 4.5 20.8 9q2.3 1.7 4.6 3.3c6.8 4.7 13.8 9.1 21.7 12 6.9 2.4 13.7 4.4 21.4 1.1z"/>
				</g>
				<g id="&lt;Group&gt;">
					<path id="&lt;Path&gt;" class="s8" d="m553 741.8c7.4 4.9 14.8 9.9 22.2 14.8 1 0.7 2.1 1.3 3.2 1.6 7.1 2.1 14.3 3.1 21.7 2 1.7-0.3 3.4-0.5 5.1-0.4 0.7 0 1.8 0.5 2 1.1 0.2 0.6-0.2 1.7-0.7 2.3-0.4 0.4-1.4 0.3-2.1 0.2-0.9 0-1.8-0.3-2.8-0.4-5.8-0.3-11.7-0.7-17.6-1q-1.5-0.1-3-0.2-0.1 0.3-0.2 0.6c0.8 0.3 1.6 0.7 2.4 0.8 6.1 0.5 12.1 0.8 18.1 1.3 1 0 2.7 0.6 2.8 1.1 0.1 1-0.3 2.6-1 3.3-2.8 2.6-6.4 3.3-10 3.3-7-0.2-13.9-0.8-20.8-1.3-0.5-0.1-1.2-0.6-1.4-1.1-5-9.8-11.5-18.4-18.4-26.9-0.1-0.1-0.1-0.2-0.1-0.4q0.3-0.4 0.6-0.7z"/>
				</g>
				<g id="&lt;Group&gt;">
					<path id="&lt;Path&gt;" class="s9" d="m487.8 431.1c-0.8-2.5-1.6-4.6-2.2-6.8-0.1-0.6-0.1-1.4 0.2-2.1 3.5-8.7 4.8-17.8 5.1-27.1 0.2-5.3 1.8-10.2 5.9-14 3.1-2.8 6.8-3.3 11.4-3.5-9.2 7.6-10 17.3-9.4 27.6 0.2 4.1 0.2 8.3-0.4 12.4-1 6.1-5 10.3-10.6 13.5z"/>
				</g>
				<g id="&lt;Group&gt;" style="opacity: .3;mix-blend-mode: multiply">
					<path id="&lt;Path&gt;" class="s9" d="m487.8 431.1c-0.8-2.5-1.6-4.6-2.2-6.8-0.1-0.6-0.1-1.4 0.2-2.1 3.5-8.7 4.8-17.8 5.1-27.1 0.2-5.3 1.8-10.2 5.9-14 3.1-2.8 6.8-3.3 11.4-3.5-9.2 7.6-10 17.3-9.4 27.6 0.2 4.1 0.2 8.3-0.4 12.4-1 6.1-5 10.3-10.6 13.5z"/>
				</g>
				<g id="&lt;Group&gt;">
					<path id="&lt;Path&gt;" class="s7" d="m165.6 358.4c6.1 15 12.1 29.7 18.1 44.4q-0.3 0.2-0.6 0.4c-0.4-0.6-0.9-1.1-1.3-1.7-6.8-10.6-13.7-21.1-20.4-31.7-1-1.5-1.5-3.6-1.4-5.4 0.1-1.3 1.5-2.6 2.5-3.8 0.8-0.8 1.9-1.4 3.1-2.2z"/>
				</g>
				<g id="&lt;Group&gt;">
					<path id="&lt;Path&gt;" class="s8" d="m590.2 791.8c6.7 1 13.3 2 19.9 2.9 3.9 0.5 7.9 0.8 11.9 1.2 3 0.4 3.9 1.3 4.5 4.4-12.6-0.8-24.5-4.4-36.4-7.8q0.1-0.3 0.1-0.7z"/>
				</g>
				<g id="&lt;Group&gt;">
					<path id="&lt;Path&gt;" class="s11" d="m573.8 481.4c-4.6 3.6-9.9 2.4-11.6-2.6-1-2.9-1.2-6.1-1.4-9.5 2.5 5.9 5.9 10.7 13 12.1z"/>
				</g>
				<g id="&lt;Group&gt;">
					<path id="&lt;Path&gt;" class="s11" d="m562.1 466c0.7 1.3 1.3 2.2 1.8 3.1 2 3.4 4.7 5.9 8.4 7.5 1.1 0.5 1.9 1.7 2.6 2.7-6.8 0.1-13.1-8.6-12.8-13.3z"/>
				</g>
				<g id="&lt;Group&gt;">
					<path id="&lt;Path&gt;" class="s9" d="m591.2 438.5c-4.2-2-8.1-3.8-12.1-5.7 6.8-3 11.7-0.9 12.1 5.7z"/>
				</g>
				<g id="&lt;Group&gt;">
					<g id="&lt;Group&gt;">
						<path id="&lt;Compound Path&gt;" fill-rule="evenodd" class="s1" d="m643.6 397.2c-2.7 5.9-7.5 9.3-14.9 10.2-0.5 0-1.1 0.1-1.8 0.2h-0.7l0.5 0.4c0.4 0.4 0.8 0.7 1.1 1 2 1.7 3 4 2.8 6.3-0.2 2.3-1.6 4.4-3.9 5.7-2.9 1.7-6.5 2.6-10.8 2.6q-0.6 0-1.3-0.1c-3.9-0.1-7.7-0.5-11.5-1q-2.4-0.2-4.8-0.5 0 0.8 0 1.6c0 1.4 0 3.1 0 4.7l0.1 1.7c0.3 5.7 0.6 11.5-1.9 17.1-0.6 1.5-0.4 3.5-0.1 5.3l0.1 0.5c0.4 3.1 0.9 6.3 1.4 9.4q0.5 2.8 0.9 5.5c0.7 4.9-0.6 7-5.4 8.4l-0.5 0.2c-0.7 0.2-1.4 0.5-2.1 0.5-4.3 0.1-6.6 2.9-8.3 5.7-3.4 5.6-7.1 11.5-11 17.4-2 3.1-3.9 4.4-6.3 4.4-1.3 0-2.7-0.3-4.4-1-4.8-2.1-9.6-4.4-14.3-6.6l-3.5-1.8c-1.3-0.6-2.5-1.2-3.7-1.9-1.4-0.7-2.8-1.5-4.2-2.1-0.7-0.4-1.6-0.6-2.4-0.6q-0.4 0-0.7 0.1-3.9 0.6-7.8 1.3c-7.6 1.2-15.4 2.5-23 4.4l-1.1 0.2c-4.6 1.1-4.6 1.1-4.2 4.8q0.1 1 0.2 2.4c0.9 13.8 3.1 27.9 6.6 43.1q3.3 13.8 6.5 27.7c4.2 18.1 8.6 36.8 13 55.2l0.2 1.2c1.7 6.9 3.4 14.1 6.6 20.6 2.3 4.9 3.2 10.5 2.5 16.8-0.5 5.6 0.6 10.2 3.7 14.6 5.2 7.2 8.7 15.7 11.2 26.9 1.1 5 2.6 10 4.1 14.9 0.9 3 1.9 6.1 2.8 9.2 0.3 1.5 0.4 3 0.4 4.5q0.1 1 0.1 2 0 0.2-0.1 0.2l-0.3 0.1 0.9 0.5q1.5 0.8 2.9 1.6 1.9 1.2 3.9 2.2c3 1.7 6.1 3.4 8.8 5.6 6.4 5.4 14.1 8.1 23.5 8.2h0.4c2 0 3.9-0.1 5.8-0.3q1.4-0.2 2.9-0.3l0.7-0.1q1-0.1 1.9-0.1h0.3c2.1 0 3.3 0.8 3.5 2.3 0.1 1.2-0.4 2.4-0.9 3.6l-0.3 0.8c-0.3 0.9-0.9 1.8-1.6 2.7q-0.5 0.5-0.9 1.1c-0.9 1.2-1.9 2.4-3.1 3.2-2.7 1.7-5.8 2.4-10.1 2.4q-1.1 0-2.1-0.1c-3.2-0.1-6.5-0.4-9.7-0.6q-2.2-0.2-4.4-0.4c-0.6 0-2.8-0.1-2.8-0.1q0.2 0.3 0.4 0.6c0.3 0.6 0.5 1 0.8 1.4q1.4 1.6 2.7 3.2c2.5 3.1 5.1 6.3 8 9.2 1.6 1.6 4.2 2.5 6.2 2.9 6.5 1 13.2 1.9 19.7 2.7l6.2 0.8q1.3 0.2 2.6 0.3 1.2 0.1 2.4 0.3c4.1 0.5 5.6 1.9 6.5 6l0.4 0.1q0.6 0.1 1.3 0.2c1.2 0.3 2.2 0.9 2.7 1.8 0.6 0.9 0.7 2 0.5 3.1q-0.6 2.3-1.6 3c-0.8 0.7-1.7 1.2-2.6 1.7-1.5 0.9-2.9 1.6-3.7 2.8-1.9 2.8-3.7 4.4-6.1 5.3-3.4 1.4-6.8 2.1-10.2 2.1-3.4 0-6.7-0.7-10.1-2-2.7-1.1-5.5-2.1-8.5-3.3l-4-1.5 0.5 0.7c0.4 0.7 0.8 1.2 1.1 1.8q1.1 1.9 0.7 3.4-0.3 1.5-2 2.4c-2.5 1.5-4.6 2.2-6.7 2.2-1.6 0-3.1-0.4-4.6-1.3q-0.9-0.6-1.8-1.1c-1.8-1-3.6-2-5-3.4-3.4-3.4-7.4-4.1-12.4-4.7l-0.8-0.1q-2.5-0.3-4.9-0.5c-6.4-0.6-11.5-4.1-14.9-10.1-3.7-6.5-6.9-13.4-10-20l-1.1-2.2c-1.4-3-2.6-6.2-3.7-9.2l-1-2.6q-0.2-0.5-0.4-1c-0.6-1.3-1.1-2.6-1.1-3.9 0.1-4.3-2.4-6.6-5.3-9.3l-0.6-0.6c-8-7.4-18.4-17.3-28.1-28.2-3.5-3.9-6-8.9-8.4-13.7q-0.6-1.3-1.2-2.6c-3.2-6.3-6.3-13.2-9.9-21.6-1.2-3-3-5.2-5.6-7-12.2-8.4-21.7-20-28.8-35.3-0.9-2-1.7-4-2.4-6-0.6-1.6-1.1-3.2-1.8-4.8-5.5-12.8-7.4-26.6-9.2-40q-0.5-3.7-1.1-7.4c-1.3-9.1-3.4-21.2-7.4-33.3q-0.7 0.1-1.4 0.2c-1.1 0.2-2.1 0.4-3.1 0.7-4.5 1.3-9 1.9-13.9 1.9-4.4 0-9-0.5-14.2-1.6-3.5-0.7-7.2-1.2-10.7-1.6-4.3-0.6-8.7-1.2-12.9-2.2-9.6-2.3-19.3-5-28.7-7.7q-5.9-1.6-11.8-3.3l-4.9-1.3q-5.2-1.5-10.4-2.9c-0.7-0.1-1.4-0.2-2.2-0.3q-0.5-0.1-1-0.1l0.2 0.4c0.3 0.5 0.5 0.8 0.7 1.1 16.7 23.8 30.1 48.7 39.7 74 2.6 7 4.4 13.5 5.2 19.5 1.4 11.2-2.2 21.2-10.7 28.9-4.9 4.5-9.9 8.5-14.7 11.8-29.6 20.4-62.1 35-98.5 50.6-1 0.4-2 0.9-2.9 1.5q-1.2 0.6-2.4 1.2c-3 1.4-5.8 2.1-8.5 2.1q-3 0-5.8-1.1c-2-0.8-3.9-1.7-6-2.6q-1.4-0.6-2.9-1.3l-5.6 8.2q0.2 0.1 0.3 0.1 0.2 0.2 0.3 0.2c7.4 0.2 12.5 4 14.7 11 1.4 4.5 2 9.4 2.6 14.1 0.5 4 0.8 8.1 1.1 12.1q0.4 4.2 0.8 8.4c0.5 4.9 3.1 8.2 7.6 9.9 3.1 1.1 5.8 2.2 8.2 3.5 3.9 2 6.1 5.4 6.4 9.8 0.2 3.7 0.2 7.4-0.1 10.9-0.4 4.1-4.9 7.7-9.7 7.7h-1.7q-5.1 0-10.1 0-5-0.1-10-0.1c-5.7 0-10.4 0.1-14.7 0.3-10.9 0.5-22.5 0.8-37.7 0.8q-9.8-0.1-19.6-0.1-9.9-0.1-19.7-0.1c-6.8 0-12.7 0-18.2 0.1q0 0 0 0c-1.1 0-1.8-0.2-2.3-0.6-0.4-0.5-0.6-1.2-0.6-2.2 0-0.6 0-2.9 0-2.9h-77.6c-0.1 0-0.2 0-0.2-0.1q0-0.5-0.1-0.9c-0.1-0.5-0.1-1-0.1-1.6q0-2.5 0-5 0-3.9-0.1-7.7c0-0.8 0.1-1.6 0.6-2.1 0.3-0.3 0.9-0.5 1.9-0.5 5.7 0.1 11.4 0.2 17.1 0.2 13.1 0 23.2-0.6 32.6-2.1 3.6-0.6 7.1-1.3 10.9-2q2.4-0.5 5-1l-0.8-0.6c-0.5-0.4-0.9-0.7-1.2-1q-1.7-1.4-3.4-2.7c-2.6-2.2-5.3-4.4-7.8-6.7-5.2-4.9-8.9-11-11.1-18.1-1.1-3.4-3.1-6.1-6.3-8.7-9.5-7.5-15.6-17.9-19.3-32.7-1.1-4.1 0.2-7.3 3.6-9.5l4.1-2.7q10.3-6.8 20.6-13.6 2.8-1.9 5.5-3.8 2.6-1.8 5.2-3.5c1.5-1 2.8-1.7 4-1.7 1.5 0 2.7 1 4.3 2.6 0.5 0.5 0.9 0.7 1.2 0.7 0.3 0 0.7-0.1 1.2-0.4 9.7-5.5 18.4-10.5 26.7-15.1 1.4-0.8 2.1-1.5 1.7-3.3-0.7-4.1 1-7.5 4.9-9.6 5-2.8 10.3-5.5 15.8-8 3.7-1.7 7.5-3.4 11.1-5 6.2-2.6 12.6-5.4 18.6-8.5q4.1-2.1 8.2-4.1c8.2-4 16.7-8.1 24.2-13.9 3.4-2.6 4.6-4.4 3.2-8.7q-1.4-4.3-2.8-8.6c-2.9-8.8-5.9-18-9.3-26.8-6.5-16.6-13.3-34.6-19.3-53.2-0.5-1.5-1.5-3.2-2.9-5-8.3-10.4-16.4-20.4-23.2-28.8-0.7-0.8-1.4-1.6-2.1-2.3-0.7-0.8-1.4-1.5-2.1-2.3l-0.5-0.6c-1.1-1.3-2.2-2.6-2.8-4.1-10-24.9-10-51-0.1-77.6 5.5-14.6 15.7-26.2 31.3-35.3l1.5-0.8c3.7-2.2 7.5-4.4 10.7-7.5 3.8-3.6 8.7-4.4 13.5-5.1l1.8-0.3c11.3-1.9 24.8-3.8 38.2-3.8 2.6 0 5.2 0.1 7.6 0.2 9.8 0.6 20.5 1.6 33.7 3.1 16.8 2 33.6 5.8 49.8 9.4 6.6 1.5 13.4 3 20.1 4.4 28.5 5.9 57.9 14.2 90 25.4 16.7 5.8 31 13.5 43.6 23.4 0.2 0.2 0.6 0.3 1.2 0.3q0.3 0 0.6-0.1 3.5-0.6 6.9-1.2 5.3-0.9 10.6-1.8 0 0 0 0c0.7 0 1.4 0.7 1.7 1.3 0.9 1.4 1.7 2.8 2.6 4.6l1 1.8q0.5-2 1.1-3.8c0.8-2.9 1.7-5.6 2.1-8.4 0.6-3.4 0.8-6.9 1.1-10.4q0.2-2.6 0.4-5.3c0.1-1.1 0.3-2.2 0.7-3.6 2.3-8.3 8.6-13.1 17.2-13.1h0.3q1.2 0.1 2.3 0.1l1.1 0.1c-0.1 0 0-0.1 0-0.1 0.1-0.1 0.2-0.2 0.2-0.3 1.3-6.2 5.1-10.6 11.8-13.4 8.1-3.4 15.5-5.1 22.7-5.1 3.6 0 7.2 0.5 10.7 1.3 6.4 1.5 11.9 5 15.9 7.9 7.1 5.1 15 8.2 23.5 9.2q1.8 0.2 3.6 0.2c3.4 0 6.5-0.6 9.8-1.7q2-0.8 4.1-0.8c4.4 0 8.4 2.5 10.5 6.7 2 3.8 1.4 7.8-1.6 10.8-0.7 0.7-1.4 1.2-2.3 1.9q-0.4 0.4-1 0.9 0.3 0 0.6 0.1c0.6 0.2 1.1 0.3 1.7 0.4 2.4 0.2 4.8 0.4 7.1 0.4 5.3 0 9.2-1 12.8-3.3q0.8-0.5 1.5-0.5c1 0 1.8 0.8 1.9 2.1 0.2 1.5 0 3.2-0.6 4.5zm-130.3-21.8q0.7-0.4 1.3-0.8c1.1-0.7 2.1-1.3 3.2-1.8 6-2.7 11.6-4 17.2-4 4.9 0 9.8 1.1 14.5 3.2q2.4 1 4.8 2.1c7.1 3.2 14.5 6.5 22 8.9 9.7 3.1 19.8 5.5 29.6 7.9q3.6 0.9 7.2 1.8 0.6 0.1 1.2 0.1c2.2 0 4.1-1.5 5.8-3.1 3-2.7 3.5-6.2 1.3-9.7-2-3.1-5-4.8-8.3-4.8q-1.7 0-3.4 0.6c-3.5 1.3-7 1.9-10.8 1.9-4.2 0-8.6-0.8-13.5-2.4-5.6-1.9-10.6-4.4-15.3-7.8-7.5-5.4-16.8-8.3-26.3-8.3-8.7 0-17 2.4-23.9 6.8-3.5 2.3-5.6 5.3-6.6 9.4zm-19.7 120.4c0-17-1.3-32.3-4-46.7l-0.2-1c-1.8-9.8-3.8-20-8.2-29.3-1.5-3.1-1.9-3.9-3.7-3.9-0.8 0-1.7 0.1-3 0.3-2.9 0.4-5.7 0.9-8.8 1.5q-1.9 0.3-3.9 0.7l9 10c0.1 0 0.1 0.2 0 0.2l-0.8 0.8q0 0.1-0.1 0.1-0.1 0-0.2 0-0.4-0.4-0.8-0.7c-0.7-0.6-1.3-1.1-1.9-1.6-1.3-1.3-2.5-2.6-3.7-3.8-2.5-2.6-5.1-5.3-8-7.5-10.1-7.6-20.7-13.5-31.8-17.6-31.3-11.7-63.3-21.1-94.9-27.8q-9-1.9-18-4c-23-5.1-46.8-10.4-70.9-12.1l-3.2-0.2c-7.3-0.5-14.8-1-22.2-1q-2.2 0-4.5 0.1c-8 0.2-16.1 1.2-23.9 2.2q-3.3 0.4-6.6 0.8c-2.7 0.3-5.3 0.9-8.2 1.5q-1.8 0.3-3.7 0.7l6.5 16.5 3.8 9.6q4.6 11.8 9.2 23.5l0.1 0.3c0.5 1.2 1 2.5 1.8 3.5q2.9 3.8 5.9 7.6c5.5 7.2 11.2 14.6 17.1 21.6 15.2 17.9 30.7 36.1 45.8 53.7q15.2 17.8 30.5 35.7c2.1 2.5 4 4 7.5 4.6 4.7 0.7 9.3 2.1 13.8 3.4q2.7 0.8 5.4 1.6 5.7 1.5 11.3 3.2c8.4 2.3 17 4.8 25.5 6.8 5 1.1 10.1 1.8 15.1 2.5 3.8 0.5 7.8 1.1 11.6 1.8 4.5 0.9 8.5 1.3 12.2 1.3 4 0 7.6-0.4 11.2-1.4 3.2-0.8 6.5-1.4 9.7-1.9q2.1-0.4 4.2-0.8-0.5-1.6-1.1-3.2c-0.8-2.4-1.6-4.7-2.2-7-2.3-9.4-5.5-19.1-9.7-29.8-2.5-6.3-5.3-13.5-12.4-17.5-0.2-0.1-1-0.6-1.2-1.2-0.4-1-0.7-2.1-1-3.1l-0.4-1.2c0-0.1 0.1-0.2 0.2-0.2l1.1-0.5q0 0 0.1 0 0 0 0.1 0 0.1 0 0.1 0.1c0.5 2.9 2.4 4.3 4.5 5.9 1 0.7 2 1.5 2.9 2.4 2.4 2.7 4.3 5.5 5.6 8.3 2.2 4.7 4 9.7 5.8 14.5l0.5 1.3c1.2 3.2 2.5 6.8 3.3 10.3 2.3 10.6 6 21.1 11.1 31.3 5.6 11.4 9.1 22.2 10.4 32.9 1.2 9.7 4.2 18.9 6.6 25.9q0.8 2.4 1.6 4.8 1.3 3.6 2.5 7.2 1.4 3.8 2.6 7.5c3.4 9.7 6.8 19.8 11.7 29.1q0.9 1.8 2 3.5c1 1.8 2.1 3.7 3 5.6 1.5 3.4 2.9 6.9 4.3 10.3 1.7 4.2 3.5 8.5 5.4 12.7 6 13 12.3 25.6 23.7 34.9 0.9 0.7 1.5 1 2.1 1 0.5 0 1-0.2 1.6-0.6 1.9-1.3 4-2.3 6-3.4l2.4-1.2c11.1-5.7 22.2-11.4 33.4-17 1.8-0.9 2.3-1.8 1.9-3.8-1.8-9.9-5.6-19.1-11.5-27.4-2.8-4.1-4-8.6-3.4-13.7 0.8-7.1-0.1-12.9-2.7-17.7-2.8-5.1-4.1-10.6-5.3-16q-0.4-1.5-0.7-3.1c-7.1-29.2-14.1-59.4-21-89.9-4-17.9-5.9-32.8-5.9-46.8zm43.6-64.8c-0.2 1.2-0.3 2.4-0.4 3.5q0 0.7-0.1 1.5l0.6 0.3 2.8-2.2q3.4-2.8 6.9-5.4c1.6-1.3 2.4-2.9 2.5-5v-1.7c0-1.7 0-3.5 0.1-5.3 0.3-3.6 0.8-7.7 3.9-10.7 1-0.9 1.1-1.8 0.4-2.6-2.5-2.8-5.3-6.1-8.3-9-0.9-0.9-2.6-1.3-3.8-1.4q-0.3 0-0.6 0c-7.4 0-14.4 4.7-17 11.4-1.9 4.9-3.5 9.9-5.1 14.8q-1 3-2 6c0 0.1 0 0.2 0.1 0.3q0 0.2 0 0.3 0.7-0.4 1.4-0.8c1.1-0.7 2.2-1.3 3-2.2 2.2-2.3 4.7-3.5 7.2-3.5q1.7 0 3.3 0.8c3.7 1.9 6 6.7 5.1 10.9zm-51.4-6.7c0.5 1.5 1 3 1.5 4.7l0.6 1.8c6-3.4 9.4-7.7 10.3-13.2 0.5-3.5 0.7-7.4 0.4-12.4-0.7-11.2 0.6-20.1 9.1-27.3-4.2 0.2-7.8 0.6-10.8 3.4-3.7 3.4-5.6 8.1-5.8 13.8-0.3 10.7-1.9 19.4-5.1 27.2-0.3 0.6-0.3 1.4-0.2 2zm-325.6-59.9c-0.1 1.7 0.4 3.8 1.4 5.3 5.3 8.4 10.8 16.9 16.1 25.1l4.3 6.6q0.4 0.6 0.8 1.1l0.3 0.4 0.3-0.1-17.9-44.1q-0.5 0.3-0.9 0.6c-0.7 0.5-1.4 0.9-1.9 1.5l-0.4 0.4c-1 1-2 2.1-2.1 3.2zm-60.8 305.6l0.2 1c0.4 1.8 0.8 3.7 1.5 5.5 2 5.7 4.1 11.4 6.2 17.1l2.2 5.9c0.6 1.5 2.4 6.4 2.4 6.4l5.1-2.2c7.3-3.2 14.4-6.3 21.6-9.5 0.3-0.1 0.5-0.3 0.8-0.6q0.2-0.2 0.5-0.3l3.5-2.7c3.3-2.3 6.6-4.8 10-7.1 1-0.8 1.5-1.2 1.3-2.5-0.4-2.9 0.6-4.9 3.2-6.5 13.5-8 27-16.3 40.2-24.4l6.3-3.9q4.1-2.5 8.2-5.1c3.6-2.3 7.4-4.7 11.1-6.9 1.8-1.1 3.6-2 5.4-2.9 2.1-1 4.3-2.1 6.2-3.3 4-2.5 4.7-6 2.2-10.1-1.4-2.3-3.1-4.5-4.6-6.4-18.3-22.2-37-42.7-59.6-67-4.4-4.8-8.8-9.3-13.4-14.2q-3-3-5.9-6.2c0 0.3 0 0.5 0.1 0.6q1.3 3.8 2.5 7.6c1.9 5.7 3.9 11.6 6.1 17.4 2.9 7.8 6 15.8 9 23.4 3.1 8 6.4 16.3 9.4 24.4 1.9 5 3.2 10.2 4.4 15.2 0.9 3.6-0.2 6.4-3.2 8.6-6.8 4.9-14.2 8.8-21.4 12.6l-1.2 0.6c-11 5.9-22.6 11-33.7 15.9q-3.7 1.7-7.4 3.3c-5.2 2.4-10.2 5.1-15.3 7.8-3.4 1.8-4.7 4.8-3.9 8.5zm-35.3 28.4c0.3 6.6 2.9 12.7 7.9 18.7 3.5 4.2 7.5 6.3 12 6.3q0.9 0 1.9-0.2c4-0.5 7.9-0.7 12-1 1.2 0 1.5-0.6 1.5-1.7 0-4.2 1.9-7.7 5.7-10.2q1.6-1 3.3-2.1l1.4-0.9-12.3-33.5v-0.2q0 0 0 0l-0.1 0.2q-4.5 2.6-9 5.2c-6.7 4-13.7 8-20.7 12-2.7 1.5-3.8 3.7-3.6 7.4zm35.5 28.8l-0.5-2.9-15.1 1.3c2.3 13.5 5.7 23.4 10.9 31.9 2.1 3.4 5 5.5 8.5 6.3q0.7 0.1 1.2 0.1c1.1 0 1.9-0.5 2.3-1.6q0.6-1.4 1.3-2.8c0.6-1.4 1.2-2.8 1.8-4.2 0.2-0.6 0-1.6-0.4-2.2-4.3-5.7-7.3-12.2-8.7-19.3-0.5-2.2-0.9-4.3-1.3-6.6zm-30 60.5l1.2 0.9c0.4 0.2 0.9 0.4 1.6 0.4q0.5 0 0.9-0.1c9.4-2.7 17.8-7.5 24.7-14.4 1.7-1.7 3.1-3.6 4.6-5.6q1-1.3 2.1-2.7c-7.5-1.1-11-5.9-13.4-10.5-4.1-7.8-7-16.8-9-28.2-0.3-1.3-0.6-2-2.1-2.4-2.1-0.7-4.1-1.7-5.8-2.9-6.6-4.8-10.6-11.7-12.3-21.1-0.7-4.3-1.1-8.7 3.6-11.4-1.6-2.1-2.5-2.8-3.6-2.8-0.9 0-2 0.6-3.3 1.5l-0.9 0.6c-8.2 5.4-16.5 10.9-24.7 16.4-2.9 2-6.1 4.2-10.1 7.2q-2.9 2.1-2.1 5.7c3.2 14.3 9.3 24.9 18.7 32.4 3.7 3 5.9 5.9 6.9 9.4 2.2 7.4 6.5 14 13.1 19.8 3.1 2.8 6.6 5.3 9.9 7.8zm96.1 28.9q-2.5-1.9-5.1-3.9c-4.3-3.2-8.7-6.5-12.9-10.1-5.6-4.6-10-10.5-13.2-17.6-1.9-4.1-3.7-8.4-5.4-12.6l-0.5-1.1c-1.4-3.4-3.5-6-6.4-8-2.4-1.6-4.7-3.3-7.1-5.1q-1.5-1.1-3-2.2v0.1q-0.2 0.2-0.3 0.5c-6.8 16.8-18.7 28.1-35.5 33.5-15.6 5-32.9 7.4-54.4 7.4q-4.5 0-9-0.1-1.9-0.1-3.7-0.1c-1 0-5.1 0.1-6 0.1v13.3h0.5q0.7 0.1 1.4 0.1c0 0 32.7 0 41.5 0q5.5 0 11 0 6.6 0 13.1 0c2.5 0 7.4 0 7.4 0 1.2 0 1.9 0.3 2.4 0.8q0.7 0.7 0.5 2.2c-0.1 0.7 0 1.4 0 2.1q0 0.3 0 0.7zm31-31.8c-11.3 0-21.3-7-24.8-17.5-1.9-5.6-2.9-11.5-3.9-17.5-0.5-3.4-0.7-6.8-0.9-10.2q-0.2-2.2-0.3-4.4c-19.1-1.5-29.9-23.4-29.3-38.6q-1.3 0.6-2.5 1.1c-2 0.8-3.8 1.6-5.6 2.5-7.1 3.5-14.4 7.1-21.6 10.8-4.3 2.3-6.4 5.7-6.2 10q0 0.9 0 1.8c0 1.2 0 2.3 0.2 3.5 2.1 16.3 8.3 27 19.5 33.5 5.2 3.1 8.7 7.4 10.6 13.3q0.3 0.8 0.6 1.6 0.4 0.8 0.7 1.5c5.2 15.4 15.9 27.4 33.7 37.9 2 1.2 4.3 1.9 6.2 1.9 8.1 0.1 14.2 0.2 20 0.2 6.3 0 12-0.1 17.5-0.2 5.8-0.1 10.3-0.9 10.9-9.3 0-0.7-0.1-1.3-0.1-2-0.1-0.6-0.1-1.2-0.1-1.8 0.2-6.8-3-11.1-10.2-13.6-2-0.7-3.9-1.8-5.8-2.8-1-0.6-2-1.2-3.1-1.7q-0.4-0.3-1.2-0.3-0.3 0-0.7 0.1-1.8 0.2-3.6 0.2zm-18.4-51.6c-2 0.6-4.6 1.3-7.3 1.7-1.7 0.2-2.2 0.8-2.1 2.5 0.6 9.7 1.4 19.2 4.6 28.3 3.6 10.4 12.7 16.9 23.7 16.9q1.5 0 3.1-0.1-0.3-1.1-0.6-2.1c-0.4-1.5-0.9-3-1-4.6-0.8-7.5-1.4-14.8-2-22.9-0.3-4.1-0.9-8.9-3.2-13.4-2.3-4.4-6.3-7-11-7q-2.1 0-4.2 0.7zm6.8-12.6c-21-21-22.2-22.5-30-36.5l-3.7 2.7c-2.9 2.1-5.7 4.2-8.5 6.3-2.7 2.1-3.7 4.8-3.1 8.7 1.1 7 3.8 13.5 8 19.5 5.3 7.5 12.3 11.4 20.2 11.4 3.1 0 6.3-0.5 9.6-1.7 0.7-0.2 1.2-0.5 1.5-0.9q2.3-3.6 4.6-7.3zm108.1-180.4c-7.5-10.2-16-20.1-24.2-29.6q-3.9-4.6-7.8-9.2c-7-8.2-14.1-16.4-21.1-24.6-9.2-10.8-18.7-21.9-28-32.9-10.1-12-18.4-22.2-26.2-33.1-5.8-8.1-11.3-16.8-16.6-25.1q-3.6-5.7-7.3-11.4-0.4-0.6-0.8-1.1c-1.7-2.6-3.5-5.2-2.8-8.8l-0.5-0.1-2.6 1.6q-2.9 1.6-5.7 3.3c-15.5 9.3-25.9 21.9-31 37.6-5.6 17.2-7.1 33.3-4.8 49.4 1.4 8.8 3.3 18 9 26.2l1.3 1.8c1.8 2.6 3.6 5.2 5.6 7.6q3.6 4.2 7.2 8.5c8.5 10.1 17.3 20.6 26.4 30.7 9.1 10.1 18.6 20.3 27.7 30.2 8.2 8.9 16.7 18.1 25 27.2 6.6 7.3 13.6 15.7 22 26.3 2.6 3.3 3.6 6.2 3.1 8.9-0.5 2.7-2.5 5.2-6.2 7.4-1.7 1-3.5 1.9-5.2 2.7-1.7 0.8-3.4 1.6-5 2.5-4.7 2.9-9.4 5.9-14 8.7q-5.6 3.6-11.3 7.1-7.5 4.6-15 9.2c-7.8 4.7-15.8 9.6-23.6 14.5-4.6 2.8-5.2 3.2-2.9 8.6 1.4 3.2 2.8 5.8 4.4 7.9 4.3 5.8 8 10.5 12.3 15 5.4 5.6 10 9.8 14.6 13 2.7 2 6.2 3 9.6 3.9q1 0.3 2 0.6 0.8 0.2 1.7 0.2 0 0 0 0c1.9 0 3.7-0.9 5.4-1.9 0.7-0.4 1.4-0.8 2.1-1.1 19.9-8.9 40.4-18.1 60.6-27.4 14-6.4 27-14.9 39.7-23.2l4.6-3c8.2-5.3 14.3-11.2 18.6-18.1l0.2-0.4c0.5-0.7 1-1.5 1.2-2.2 2.9-9.1 3.1-17.3 0.5-25.1q-0.4-1.3-0.8-2.6c-0.7-2.2-1.4-4.4-2.3-6.5-10.6-27.8-23.4-51.8-39.1-73.2zm167.6 139.1c-0.2-1-0.5-1.8-0.9-2.5-1-2.1-1.9-3.9-2.9-5.7-2.1-4.1-4.2-8.3-5.9-12.7-5-13.2-9.8-27-14.4-41.1-2.2-6.8-3.7-13.7-5.3-21.4q-0.5-2.5-1-5c-1.2-6.2-2.4-12.6-5.1-18.6-3.1-7.2-5.8-13.1-8.3-18.6-0.2-0.4-1-0.9-1.4-0.9v-0.2q0 0 0 0l-0.1 0.2c-1.2 0.1-2.4 0.4-3.7 0.7q-0.6 0.2-1.3 0.4l0.2 0.6q0.1 0.7 0.4 1.4c3.1 9.6 5.4 20.2 7.5 34.1 2.2 15.2 4.5 30 9.7 44.6 5.3 15.1 13.8 28.2 25.9 39.9 1.4 1.4 3.1 2.5 4.7 3.5q1 0.6 1.9 1.3zm91.7 66.8q-1.1-1.3-2.2-2.6c-8.3 5.7-17.2 9.4-26.6 13.3q-2.2 0.9-4.3 1.8 0.2 0.9 0.4 1.9c0.3 1.6 0.6 3.2 1.2 4.7l0.1 0.4c1.7 4.8 3.5 9.9 5.7 14.6 3.1 6.6 6.8 14.4 11 21.8 3.1 5.4 7.8 8.5 13.8 8.9 1.4 0.1 2.9 0.3 4.3 0.4q0.9 0.2 1.9 0.3c4 0.4 8.5 1.2 12.1 4.8 1.2 1.2 2.7 2.1 4.2 3q0.9 0.6 1.9 1.2c1.3 0.8 2.7 1.3 4.2 1.3 1.3 0 2.7-0.4 4.2-1.1 1.5-0.7 2.2-1.3 2.3-1.9 0.2-0.7-0.1-1.5-1-2.5-2-2.5-4.1-4.9-6.1-7.3q-1.6-1.8-3.2-3.7-1-1.2-2-2.5l-1-1.2c-0.1 0 0-0.2 0-0.2l0.7-0.7q0.1 0 0.2 0 0 0 0.1 0l0.6 0.6q0.6 0.5 1.2 1c1.2 1.1 2.3 2.2 3.4 3.3 2.8 2.9 5.6 5.8 10 6.8 2.4 0.6 4.7 1.6 7 2.5 1.7 0.7 3.5 1.5 5.4 2.1 2.5 0.8 5.1 1.2 7.5 1.2 4.1 0 8.1-1.2 11.6-3.5 0.6-0.3 0.9-1 1.3-1.6q0.2-0.4 0.5-0.7-0.4-0.2-0.7-0.4c-0.6-0.4-1.2-0.8-1.9-0.9-3.5-0.6-7-1.2-10.5-1.8l-4.1-0.6c-4.8-0.8-9.5-2.7-14.2-5.8-0.4-0.2-0.6-0.5-0.8-0.8q-0.2-0.2-0.4-0.4c0-0.1 0-0.2 0-0.2l0.4-0.6q0.1 0 0.2 0 0 0 0 0 0.4 0.1 0.8 0.3c0.6 0.2 1.2 0.5 1.7 0.8 4.7 2.7 9.7 4.4 15.3 5.2 4.7 0.6 9.4 1.3 14 2.3q1.6 0.4 2.7 0.4c2.2 0 3.7-0.9 5-3.1 0.9-1.3 1.1-2.4 0.7-3.2-0.4-0.7-1.3-1.1-2.7-1.2-12-0.5-23.6-3.7-34.8-6.8l-0.3-0.1c-2.9-0.8-5.7-2.4-7.6-4.4-3.8-3.9-7.4-8.1-10.9-12.2q-1.6-1.9-3.2-3.8c-0.7-0.9-1.3-1.9-1.9-2.9l-0.4-0.5q-1.9-3.1-3.7-6.1c-2.7-4.4-5.4-8.9-8.3-13.2-1.4-2.2-3.2-4.3-4.8-6.4zm0-3.4c0 0 0.1 0.2 0.1 0.2 7.6 9.4 13.7 17.6 18.4 26.8 0.2 0.5 0.8 1 1.2 1l4.2 0.3c5.4 0.5 11.1 0.9 16.6 1h0.5c4 0 7.2-1.1 9.4-3.2 0.7-0.7 1-2.2 0.9-3.1-0.1-0.3-1.4-0.9-2.5-1q-5.1-0.4-10.2-0.7-4-0.2-7.9-0.5c-0.6-0.1-1.2-0.3-1.8-0.5q-0.4-0.2-0.7-0.3c-0.1 0-0.2-0.1-0.2-0.3l0.2-0.6q0.1-0.1 0.2-0.1c0 0 1 0 1 0q1 0.1 2 0.2l5.9 0.3q5.9 0.3 11.8 0.7c0.5 0 1 0.1 1.4 0.2q0.7 0.1 1.4 0.2 0.5 0 0.9 0.1 0.7 0 1-0.3c0.4-0.5 0.8-1.5 0.6-2.1-0.1-0.4-1.1-0.9-1.8-1h-0.5c-1.6 0-3.2 0.3-4.5 0.4q-3 0.5-6.2 0.5c-4.9 0-10-0.8-15.6-2.5q-1.6-0.4-3.3-1.6-8.5-5.6-17-11.3l-5.1-3.4zm37.8 49.7l1.8 0.6c11 3.1 22.3 6.3 34.2 7.2-0.6-2.9-1.5-3.7-4.3-4q-2.7-0.3-5.4-0.5c-2.1-0.2-4.4-0.4-6.6-0.7-4.6-0.7-9.2-1.4-13.9-2.1l-5.7-0.8zm-45.3-77.7l-45.1 23.5v0.2l-0.3 0.8 2.9 2.7q3.8 3.6 7.7 7.1 2.9 2.7 5.9 5.2c1.2 1 2.3 1.5 3.6 1.5q1.2 0 2.6-0.7 3.8-1.8 7.6-3.5c3.8-1.6 7.6-3.4 11.3-5.2 3.3-1.7 6.3-4 8.8-6.1 0.9-0.8 1.6-2.7 1.4-3.8-1.5-5.4-3.1-10.7-4.8-16.3q-0.8-2.7-1.6-5.4zm-38.1-334c-3.7 3.5-5.8 8.2-6.2 14-0.3 4.1-0.1 8.2 0 12.3q0.1 1.6 0.1 3.2c0.3 9.2-2.5 15.7-8.5 19.7-4 2.7-4 5.2-2.7 8.5l0.5 1.1 4-1.1c4.5-1.2 9-2.4 13.4-3.7 0.7-0.2 1.5-0.7 2-1.4 2.7-3.5 4.9-6.6 6.1-10.4 2.1-6.7 4.5-13.3 6.7-19.2 1.8-5 5.5-8.6 11-10.6 1.8-0.6 3.7-1.1 5.7-1.6q1.2-0.3 2.4-0.6-1-0.6-1.9-1.2c-1.7-0.9-3.3-1.9-5-2.7l-1.9-1c-5.7-2.9-11.7-5.8-18.2-7.2q-1.1-0.3-2.1-0.3c-2 0-3.7 0.7-5.4 2.2zm89.2 59.7q0-7.1 0-14.2v-3.5c0-1.8-0.8-2.7-2.7-3.4-7-2.6-13.7-6-19.9-10.1-1.7-1.2-3.8-2.3-6.5-3.5q-2.7-1.2-5.3-1.2c-5.2 0-8.9 3.7-9.7 9.6-0.2 1.7-0.2 3.5-0.3 5.3-0.1 1.4-0.1 3-0.3 4.5-0.1 1.5-0.3 3.6-1.4 4.5-3.4 3-7.1 6.1-11.8 9.5-0.5 0.3-1 0.5-1.5 0.5-1.1 0-1.9-0.9-2-2.4 0-1.6 0.1-3.4 0.5-5.2 0.8-3.2-1-7.2-4-8.8q-1.1-0.6-2.5-0.6c-1.9 0-3.7 0.9-5 2.4-1.8 2-2.5 4.7-1.9 7.2 0.5 2.6 2.3 4.7 4.7 5.8q1 0.4 1.9 1l0.9 0.4c0 0.1 0.1 0.2 0.1 0.2l-0.4 1q0 0.2-0.2 0.2c0 0-4.3-0.8-4.3-0.8l-1.7 10.6c0 0.1-0.1 0.2-0.2 0.2 0 0-1-0.1-1-0.1-0.1 0-0.2-0.1-0.2-0.2q-0.1-0.3-0.1-0.7c-0.1-0.5-0.2-1.1-0.2-1.6q0.3-2.5 0.7-5 0.2-1.8 0.4-3.6v-0.2c0.1-0.5 0.2-1.2 0-1.5-2.4-2.8-3.3-6-2.9-9.9-2.4 1.8-4.6 3.5-6.1 5.7-2.2 3-4.8 4.7-8.3 5.5q-1.2 0.2-2.5 0.6-0.9 0.3-1.9 0.5c-2.3 0.6-4.7 1.1-7.2 1.7l-3.1 0.8c3.6 16.1 5.4 33.2 5.7 53.9 8.3-3.2 17.1-4.6 25.6-5.8 2.9-0.5 5.9-0.9 8.8-1.4q-0.8-0.6-1.5-1.2c-1.2-1-2.3-1.9-3.4-2.9-0.4-0.4-0.9-0.8-1.4-1.1-1.2-0.9-2.4-1.8-2.7-3.6q0-0.1 0.1-0.2 0-0.1 0.1-0.1 0 0 0 0c1 0.2 2.1 0.4 2.8 1.2 5.3 5.1 11.9 8.5 18.2 11.8q2.6 1.3 5.1 2.7c4.6 2.5 9.5 4.5 14 6.3 1.5 0.6 2.6 0.9 3.5 0.9 1.7 0 2.9-0.9 4.5-3.4 3.7-5.7 7.4-11.6 11-17.5 2.7-4.3 5.7-6.4 9.9-6.6 0.8-0.1 1.6-0.3 2.4-0.6l0.3-0.1c3.1-1 3.7-1.9 3.4-5.1-0.3-2.6-0.8-5.2-1.2-7.8q-0.3-1.5-0.5-3l-0.2-0.9c-0.8-4.9-1.6-9.9 1-14.7 0.3-0.5 0.4-1.2 0.4-2zm31.4-23.1c-2.5 1.1-5.1 1.6-7.9 1.6-4.5 0-8.9-1.5-13-2.9-9.6-3.5-17.6-9-26.3-15.3-6-4.3-12.6-8.3-20.8-9q-1.1-0.1-2.2-0.1c-3.5 0-6.6 0.7-9.4 2l8.9 9.9q2.4-1.1 4.9-1.1c2.4 0 5 0.7 7.7 2.2q3.1 1.7 6.2 3.5c3.7 2.1 7.5 4.3 11.5 6.2l1.7 0.8c5.6 2.6 11.4 5.4 17.8 6 2.3 0.2 4.9 0.4 7.4 0.4 3.3 0 6.1-0.4 8.7-1.1 1.9-0.5 3.6-1.1 4.8-3.1zm15-24.3l-0.5-0.3c-4.2 2.5-8.9 3.8-14.2 3.8-2.3 0-4.8-0.3-7.4-0.7-13.2-2.5-26.1-5.5-35.8-7.9-12.9-3.2-25.1-8.8-35.5-13.8-4.5-2.1-9.2-3.2-14-3.2-5 0-10.2 1.1-15.8 3.5-1.1 0.4-2.1 1.1-3.2 1.8q-0.6 0.4-1.3 0.8 1.2 0.4 2.3 0.7c1.7 0.6 3.4 1.1 5 1.8l0.4 0.2c7.6 3.2 15.5 6.6 22.3 11.7 0.5 0.4 1.5 0.7 2.1 0.7q0.4 0 0.6-0.1c3.5-1.4 7-2 10.4-2 4.5 0 9 1.1 13.5 3.3 4.3 2.2 8.3 5 12.3 7.7l0.7 0.5c8.1 5.7 17.9 11.9 29.8 14.7q2.8 0.7 5.4 0.7 3.4 0 6.5-1.1 2.1-0.8 2.4-1.9 0.2-1.1-1.3-2.5c-0.8-0.8-1.8-1.4-2.8-1.9q-0.9-0.5-1.7-1c-0.4-0.3-0.7-0.7-1.1-1q-0.2-0.3-0.4-0.5 0-0.1 0-0.2 0-0.1 0.1-0.1 0.3-0.2 0.5-0.3c0.5-0.3 0.9-0.5 1.4-0.6 0.9-0.1 1.8-0.1 2.7-0.2q1.1 0 2.3-0.1c6.7-0.7 11.2-3.7 13.6-9.2 0.3-0.7 0.4-1.5 0.6-2.3q0-0.5 0.1-1z"/>
					</g>
				</g>
				<g id="&lt;Group&gt;">
					<path id="&lt;Path&gt;" class="s1" d="m276.3 449.5q7.3 38.3 14.7 76.5-0.3 0.2-0.6 0.3c-0.4-0.9-0.9-1.8-1.1-2.8-3.7-18.8-7.5-37.6-11.1-56.4-1-5.2-1.6-10.4-2.4-15.6-0.1-0.6-0.1-1.2-0.2-1.9q0.4 0 0.7-0.1z"/>
				</g>
				<g id="&lt;Group&gt;">
					<path id="&lt;Path&gt;" class="s1" d="m443.1 434.9c-1.1 0-2.2 0.2-3.2 0.1-4.9-0.3-9.5 0.8-14 2.9-15.8 7.3-27.6 18.6-34.1 35-0.7 1.8-1.6 3.6-2.4 5.4q-0.4-0.2-0.9-0.3c0.1-0.7 0.1-1.3 0.3-1.9 7-19.4 20.1-32.8 39-40.7 4.3-1.8 8.8-2.3 13.4-1.9 0.6 0.1 1.3 0.4 1.9 0.5q0 0.4 0 0.9z"/>
				</g>
				<g id="&lt;Group&gt;">
					<path id="&lt;Path&gt;" class="s1" d="m297.9 522.2c-0.2-1.4-0.5-2.3-0.5-3.3q0.8-19.6 1.7-39.2c0-0.7 0.2-1.3 0.4-2.3 1.7 3.1 0.4 41.5-1.6 44.8z"/>
				</g>
				<g id="&lt;Group&gt;">
					<path id="&lt;Path&gt;" class="s1" d="m414.9 455.2c-8.3 7.3-14.1 16.3-17.9 27.1-2.4-5.3 11.4-25.5 17.9-27.1z"/>
				</g>
				<g id="&lt;Group&gt;">
					<g id="&lt;Group&gt;">
						<path id="&lt;Compound Path&gt;" fill-rule="evenodd" class="s1" d="m576.6 481.5c-1.1 0.7-2 1.2-2.9 1.8-4.3 3.2-10.4 1.5-12.4-3.5-1.9-4.5-2-9.3-1.2-14.1 0.1-0.7 0.8-1.5 1.5-1.8 0.3-0.1 1.3 0.7 1.6 1.3 2.5 4.5 5.3 8.8 10.7 10.4 0.7 0.2 1.4 1.2 1.8 2 0.5 1.3 0.6 2.6 0.9 3.9zm-2.8-0.1c-7.1-1.4-10.5-6.2-13-12.1 0.2 3.4 0.4 6.6 1.4 9.5 1.7 5 7 6.2 11.6 2.6zm-11.7-15.4c-0.3 4.7 6 13.4 12.8 13.3-0.7-1-1.5-2.2-2.6-2.7-3.7-1.6-6.4-4.1-8.4-7.5-0.5-0.9-1.1-1.8-1.8-3.1z"/>
					</g>
				</g>
				<g id="&lt;Group&gt;">
					<g id="&lt;Group&gt;">
						<path id="&lt;Compound Path&gt;" fill-rule="evenodd" class="s1" d="m584.5 430c4.9 0.2 8 3.1 8.2 7.9 0 1.7-1.1 2.7-2.7 2-4.4-1.9-8.8-4-13.2-6.1-0.4-0.2-0.9-0.9-0.8-1.3 0.2-0.5 0.7-1.1 1.2-1.2 2.4-0.5 4.9-0.9 7.3-1.3zm6.7 8.5c-0.4-6.6-5.3-8.7-12.1-5.7 4 1.9 7.9 3.7 12.1 5.7z"/>
					</g>
				</g>
				<g id="&lt;Group&gt;">
					<path id="&lt;Path&gt;" class="s1" d="m586.9 443c-0.9 1.9-1.5 3.6-2.5 5.1-1 1.4-2.9 1-2.9-0.7 0-2.3 0.8-4.7 1.5-6.9 0.1-0.4 1.6-0.8 1.8-0.6 0.8 0.9 1.3 1.9 2.1 3.1z"/>
				</g>
				<g id="&lt;Group&gt;" style="opacity: .6;mix-blend-mode: multiply">
					<path id="&lt;Path&gt;" class="s12" d="m110.1 707.4q-1.5 0.9-3 1.8c-0.6 0.4-1.3 0.8-1.9 1.3-3.6 2.3-5.6 5.6-5.6 10 0 1.2-0.3 1.8-1.7 1.9-4 0.3-8 0.5-12 1q-3.1 0.4-5.8-0.4c7.2-3.8 13.1-10.4 16-18.1 3.9-10.1 2.8-20.4-0.4-30.3q0 0 0 0 0.8-0.5 1.6-1c0.1 0 0.3 0 0.3 0 4.2 11.3 8.3 22.5 12.5 33.8z"/>
				</g>
				<g id="&lt;Group&gt;" style="opacity: .6;mix-blend-mode: multiply">
					<path id="&lt;Path&gt;" class="s12" d="m185.4 720.5c-2 3.3-4 6.5-6.1 9.7-0.3 0.5-1 0.8-1.5 1-9.5 3.3-18 1.9-24.8-3.9 5.7-4.1 5.6-11.6 5.5-17.8-0.1-4.9-0.5-9.9-1.2-14.9-5.6 3.5-11.3 7.1-17 10.6q-0.4-1.7-0.7-3.3c-0.5-3.7 0.2-6.7 3.2-9 4.1-3 8.2-6 12.5-9.1q0.2 0.5 0.5 0.9c2.1 3.8 3.7 6.6 5.4 9.2 0 0.1 0 0.1 0 0.1 0.9 1.3 1.8 2.6 2.8 3.9q0.1 0.1 0.2 0.3 0.7 0.8 1.4 1.7c2.9 3.5 6.8 7.5 12.9 13.7q0.8 0.8 1.6 1.6c1.6 1.6 3.4 3.4 5.3 5.3z"/>
				</g>
				<g id="&lt;Group&gt;" style="opacity: .3;mix-blend-mode: multiply">
					<path id="&lt;Path&gt;" class="s13" d="m100.9 676.6c-0.5-1.3-0.8-2.6-1.1-3.9 30.6 8.9 60.2-13.6 85.2-29.2 6.9-4.4 13.9-8.6 20.7-13 6-3.9 11.7-6.3 11.7-15.2 0-3.6-1.7-7.7-3-11.1-3.5-9.4-7.5-18.6-11.5-27.7 10.2 11.4 20.4 23 30.1 34.9 1.7 2 3.3 4.1 4.7 6.4 2.5 4.1 1.8 7.7-2.3 10.3-3.6 2.4-7.8 4-11.6 6.2-6.5 3.9-12.8 8.1-19.3 12.1-15.5 9.5-30.9 19-46.5 28.3-2.7 1.6-3.5 3.6-3.1 6.3 0.2 1.4-0.3 1.9-1.4 2.6-4.6 3.2-9 6.5-13.5 9.8-0.5 0.3-0.9 0.8-1.4 1-8.8 3.9-17.7 7.8-26.8 11.8-0.9-2.2-1.7-4.4-2.5-6.7-2.8-7.6-5.7-15.2-8.4-22.9z"/>
				</g>
				<g id="&lt;Group&gt;" style="opacity: .3;mix-blend-mode: multiply">
					<path id="&lt;Path&gt;" class="s13" d="m159.9 542.5c-2.1-5.9-4-11.8-6-17.7-0.1-0.3-0.1-0.6-0.2-1.3 6.8 7.2 13.3 13.9 19.7 20.8 8.3 9 16.6 17.9 24.8 27-14.7-6-27.1-18.1-38.3-28.8q0 0 0 0z"/>
				</g>
				<g id="&lt;Group&gt;" style="opacity: .3;mix-blend-mode: multiply">
					<path id="&lt;Path&gt;" class="s13" d="m222.1 661.3c-22.1 7.4-41.2 18.6-60.2 30.5-1.7-2.3-3-4.9-4.1-7.5-2.4-5.6-1.7-6 2.9-8.9 12.8-8 25.8-15.7 38.7-23.6 8.4-5.2 16.7-10.7 25.2-15.8 3.3-2 7-3.2 10.3-5.2 7-4.3 8.1-9.5 3-16-7.1-9-14.3-17.9-22-26.3q-7.1-7.8-14.2-15.6-0.2-0.2-0.5-0.5-0.1-0.1-0.2-0.3c-12.7-13.7-25.4-27.2-37.8-41.1-11.5-12.7-22.5-26-33.5-39.1-2.6-3-4.7-6.3-7-9.5-1.2-1.8-2.3-3.7-3.2-5.6 10 3.9 19.6 8.4 28.8 15.1 13.4 9.8 25.9 20.8 37.8 32.4 12.5 12.1 24.2 24.8 36 37.6 6.9 7.4 14 14.8 20.7 22.5 1.3 1.5 2.4 3 3.4 4.7 5.3 6.1 9.7 12.8 12.7 20.3 11.5 28.8-13 44-36.8 51.9z"/>
				</g>
				<g id="&lt;Group&gt;" style="opacity: .3;mix-blend-mode: multiply">
					<path id="&lt;Path&gt;" class="s7" d="m105.1 766c-2.5 3.2-4.5 6.2-7 8.6-7 7-15.3 11.8-24.8 14.5-0.8 0.2-2 0.1-2.6-0.3-3.8-2.8-7.6-5.6-11.1-8.7-6.2-5.5-10.8-12-13.2-20-1.2-3.9-3.7-6.8-6.8-9.3-10.5-8.4-15.9-19.7-18.9-32.5 7.9 12.9 16.9 25.4 30.6 32.6 14.3 7.5 27.2 3.6 35.6-5.9q1.8 5.4 4.6 10.6c2.8 5.4 6.4 9.5 13.6 10.4z"/>
				</g>
				<g id="&lt;Group&gt;" style="opacity: .6;mix-blend-mode: multiply">
					<path id="&lt;Path&gt;" class="s7" d="m110.2 755.4c-0.9 2.3-2.1 4.6-3.1 7-0.7 1.7-2 1.9-3.7 1.6-3.9-0.9-6.7-3.1-8.6-6.4q-2.9-4.6-4.9-9.6c-1.1-2.7-0.7-5.7 0.8-8.3 2.7-4.5 4.6-9.7 5.6-15.4q0-0.2 0-0.4c0.1-0.5 1-0.7 1.3-0.3q0.2 0.3 0.5 0.6 0 0 0 0c1 1.3 1.7 2.7 2 4.3q0.4 2.7 1 5.3c1.4 7 4.3 13.5 8.7 19.2 0.4 0.6 0.6 1.7 0.4 2.4z"/>
				</g>
				<g id="&lt;Group&gt;" style="opacity: .3;mix-blend-mode: multiply">
					<path id="&lt;Path&gt;" class="s7" d="m221.7 806.7c-0.5 8.4-4.9 9.3-11.1 9.5-12.5 0.3-24.9 0.2-37.4 0-2.1 0-4.5-0.8-6.3-1.9-15.4-9-28-20.6-33.9-38-0.4-1.1-0.9-2-1.2-3.1-1.9-5.7-5.3-10.1-10.5-13.2-5.1-3-9-6.7-11.9-11q-3.2-8.2-5.4-16.8c-1.5-5.7-2.4-11.7-1.2-17 1.1-1.8 2.8-3.3 4.9-4.4q0.2 0 0.3-0.1 0.5-0.2 1-0.5c1.5 9.5 3.5 19.2 8.4 27.5 5.9 9.9 13.6 11.9 22.2 17.9 4.7 3.2 7.1 7.9 9.6 12.9 3.9 8.2 8.3 16 14.7 22.4 12.8 12.9 34.7 18.5 49 4.6 1.3-1.3 2.6-2.5 3.9-3.5 3.2 2.4 4.9 5.9 4.7 10.9 0 1.2 0.3 2.5 0.2 3.8z"/>
				</g>
				<g id="&lt;Group&gt;" style="opacity: .6;mix-blend-mode: multiply">
					<path id="&lt;Path&gt;" class="s7" d="m200.6 782.6c-12.5 1.5-23.2-5.2-27.3-16.9-3.2-9.1-4-18.7-4.6-28.3-0.1-1.7 0.5-2.5 2.3-2.8 0 0 9.5 37.1 28.4 43.6 0.3 1.4 0.8 2.9 1.2 4.4z"/>
				</g>
				<g id="&lt;Group&gt;" style="opacity: .3;mix-blend-mode: multiply">
					<path id="&lt;Path&gt;" class="s7" d="m461.1 679.6q-0.5-0.4-1.1-0.7c-7.4-16.9-14.4-33.9-21.1-51.1-4.9-12.7-10.6-24.7-15-37.5-2.1-6-4.8-11.9-6.2-18.1-1.3-6.4-1.1-12.7-2.9-19q-0.1-0.3-0.1-0.6 0.4-0.1 0.9-0.1c0.5-0.1 1.4 0.6 1.6 1.1 2.9 6.2 5.6 12.4 8.4 18.6 3.3 7.5 4.4 15.6 6 23.6 1.5 7.2 3.1 14.4 5.4 21.3q6.7 20.8 14.4 41.2c2.3 6.3 5.7 12.1 8.7 18.2 0.4 0.9 0.9 1.8 1 3.1z"/>
				</g>
				<g id="&lt;Group&gt;">
					<g id="&lt;Group&gt;" style="opacity: .3;mix-blend-mode: multiply">
						<path id="&lt;Path&gt;" class="s7" d="m414.1 545.7q-0.4 0-0.7 0c1.2-2 0.4-4.6-0.3-6.8-5.1-14.3-10.4-29-18.9-41.5 1.8 4.5 2 9.7 0.6 14.4-2.5 7.9-9.2 14.1-16.9 17.3-7.7 3.2-16.2 3.7-24.5 3q-0.8-0.1-1.6-0.2c-8.2-4.3-15.9-9.7-22.8-16-11.7-10.7-19.4-23.1-27-36.7-2.8-5.1-7-5.3-11.8-8.8-5.6-4-9.8-9.1-12.8-15.1q-0.8-1.5-1.5-3.2-0.8-1.9-1.4-3.9c-0.4-1.1-1.7-1.4-2.6-0.6-23.8 20.3-53.4-17.3-67-33.9-14.1-17.3-25.9-36.7-35.6-56.8q-1.1 0.3-2.2 0.5c2.4 5.9 4.5 11.3 6.6 16.7q6.5 16.5 13 33c0.5 1.4 1 2.8 1.9 3.9 7.6 9.8 15 19.7 23 29.2 25.3 29.9 50.9 59.6 76.3 89.4 2.1 2.5 4.1 4.1 7.7 4.6 6.5 1.1 12.8 3.3 19.2 5.1 12.2 3.3 24.4 7.1 36.8 10 8.7 2 17.8 2.6 26.7 4.3 7.9 1.5 15.6 1.9 23.5-0.1 4.6-1.2 9.3-1.8 14.1-2.7-0.6-1.8-1.2-3.5-1.8-5.1z"/>
					</g>
				</g>
				<g id="&lt;Group&gt;" style="opacity: .6;mix-blend-mode: multiply">
					<path id="&lt;Path&gt;" class="s0" d="m166.3 816.8h-85.5c0-1-0.1-2 0-3q0.1-0.6 0-1c22.8-6.9 42.7-21.2 43.8-47.8 1.8 1.7 3.2 3.8 4.2 6.2 1.7 4.2 3.4 8.3 5.3 12.4q0.3 0.7 0.6 1.3c0.7 1.7 1.5 3.3 2.4 4.8q0.2 0.2 0.3 0.4 0.5 0.8 1 1.6c3.5 4.8 7.7 9.2 12.2 13.1q0.2 0.1 0.3 0.2c2.6 2.2 5.3 4.3 8.1 6.3 2.5 1.8 4.9 3.6 7.3 5.5z"/>
				</g>
				<g id="&lt;Group&gt;" style="opacity: .3;mix-blend-mode: multiply">
					<path id="&lt;Path&gt;" class="s9" d="m513.1 428.6c-1 1.7-2.2 3.2-3.4 4.8-0.5 0.7-1.3 1.3-2.1 1.5-5.8 1.6-11.7 3.2-17.6 4.8-0.3-0.8-0.4-1.1-0.5-1.3-1.5-3.6-1.2-6.1 2.7-8.7 5.8-3.9 8.1-9.8 8.5-16.5q1.3 3.1 3.4 5.9c1.6 2.2 7 5.9 9 9.5z"/>
				</g>
				<g id="&lt;Group&gt;" style="opacity: .3;mix-blend-mode: multiply">
					<path id="&lt;Path&gt;" class="s9" d="m533.4 393.3q-1.6 0.6-3.1 1.4c-2.5-7.1-7-12.3-13.5-15.6 6.3 1.7 12 4.8 17.8 7.7 2.5 1.2 4.8 2.7 7.4 4.1-3.1 0.9-5.9 1.4-8.6 2.4z"/>
				</g>
				<g id="&lt;Group&gt;" style="opacity: .3;mix-blend-mode: multiply">
					<path id="&lt;Path&gt;" class="s9" d="m545.7 394.2c2.8 2.7 5.4 5.6 7.9 8.6-6.4-5-13.7-7.1-21.9-6.7q-0.4 0-0.7-0.2c3.2-2.1 7-3.2 10.8-3.1 1.3 0.1 3 0.5 3.9 1.4z"/>
				</g>
				<g id="&lt;Group&gt;" style="opacity: .3;mix-blend-mode: multiply">
					<path id="&lt;Path&gt;" class="s9" d="m580.4 400.5q2.3 1.7 4.6 3.3-2.3-1.5-4.7-2.8c-2.9-1.7-7.3-4.8-10.7-5.1q-1.2-0.5-2.5-0.9-5 3.7-10.1 7.4c0.2 0.4 0.2 0.8 0 1.2q-0.1 0-0.2 0.1c-3.1-3.4-6-6.7-9.2-10.2 3.8-1.8 7.8-2.3 12-2 8 0.6 14.6 4.5 20.8 9z"/>
				</g>
				<g id="&lt;Group&gt;" style="opacity: .3;mix-blend-mode: multiply">
					<path id="&lt;Path&gt;" class="s9" d="m522.1 379.6c-2.4-1-4.9-1.6-7.8-2.6 1.6-0.9 2.8-1.8 4.2-2.5 27.8 0.1 55.4 10.8 73.6 32.3q-3.9-2.4-7.8-5.2c-4.2-2.9-8.4-5.9-13-8.1-7.5-3.8-15.5-4.5-23.7-1.4-0.7 0.3-2.1 0-2.9-0.6-6.9-5.2-14.8-8.5-22.6-11.9z"/>
				</g>
				<g id="&lt;Group&gt;" style="opacity: .6;mix-blend-mode: multiply">
					<path id="&lt;Path&gt;" class="s8" d="m518.3 427.6c-1.1 11.1-12.4 14.7-16.3 24.3-3.1 7.8-1.3 19.4 0.8 27.3 1.3 4.8 3 9.2 5.7 12.9-4.3 0.9-8.6 2-12.8 3.6-0.2-18.4-1.7-36.4-5.7-54.3 2.3-0.6 4.5-1.1 6.7-1.6q3.7-0.5 7.1-1.8 0 0 0 0 0.6-0.1 1.1-0.3c3.5-0.7 6-2.5 8.1-5.4 1.4-1.9 3.3-3.4 5.3-4.9q0 0.1 0 0.2z"/>
				</g>
				<g id="&lt;Group&gt;" style="opacity: .3;mix-blend-mode: multiply">
					<path id="&lt;Path&gt;" class="s7" d="m500.5 735.9c-1.6 1-2.5 0.8-3.9-0.4-11.4-9.3-17.8-22-23.8-35-1.7-3.6-3.2-7.3-4.7-11 14.3 15.9 29.5 30.8 50 37.1q-5.6 3-11.3 5.9c-2.1 1.1-4.3 2.1-6.3 3.4z"/>
				</g>
				<g id="&lt;Group&gt;" style="opacity: .3;mix-blend-mode: multiply">
					<path id="&lt;Path&gt;" class="s7" d="m533.5 750.2c-3.7 1.6-7.4 3.2-11.1 5-2.4 1.1-4.4 0.8-6.4-0.9-2-1.7-4-3.4-5.9-5.2-3.6-3.3-7.2-6.6-10.7-9.9q0.2-0.6 0.4-1.2c6.6-3.4 13.1-6.9 19.7-10.3 1.7 9.6 6.7 17.5 14 22.5z"/>
				</g>
				<g id="&lt;Group&gt;" style="opacity: .6;mix-blend-mode: multiply">
					<path id="&lt;Path&gt;" class="s8" d="m550.5 743.8q-2.2 1.8-4.4 3.6c0.1 0.3 0.1 0.6-0.2 0.8q-1.3 1-2.6 1.8c-8.7 8.2-14.7 17.6-11.8 31.1 1.9 8.9 6.2 16.9 9.6 25.3q-1.9-1.9-3.4-4.4c-4-7.1-7.5-14.4-11-21.8-2.2-4.8-4-9.9-5.8-15-0.8-2.2-1.1-4.6-1.6-6.8 7.7-3.2 15.3-6.2 22.5-10q0.9-0.3 1.8-0.7 3.3-2.2 6.7-4.2c0.2 0 0.4 0.2 0.2 0.3z"/>
				</g>
			</g>
		</g>
	</g>
</svg>