<svg width="396" height="112" viewBox="0 0 396 112" fill="none" xmlns="http://www.w3.org/2000/svg">
<g clip-path="url(#clip0_226_302)">
<path d="M121.921 0H117.044V111.192H121.921V0Z" fill="url(#paint0_linear_226_302)"/>
<path d="M169.914 46.0997C171.538 58.4124 163.522 66.1143 153.62 66.1143C143.193 66.1143 134.601 58.4124 134.601 47.2524C134.601 36.0924 143.403 28.3905 153.62 28.3905C158.492 28.3905 162.789 29.9623 165.932 32.7392L161.322 37.9262C159.383 36.564 156.763 35.5685 154.091 35.5685C147.437 35.5685 142.564 40.4412 142.564 47.2524C142.564 54.0636 147.28 58.9363 153.62 58.9363C158.44 58.9363 161.793 57.2073 162.841 52.5966H154.196V46.0997H169.914ZM204.442 65.5904H196.321L188.514 53.3825H188.409H183.222V65.5904H175.573V28.9145H188.409C196.635 28.9145 201.979 33.8919 201.979 41.3843C201.979 46.3617 199.569 50.0817 195.483 51.9679L204.442 65.5904ZM183.222 35.9353V46.7809H187.938C191.71 46.7809 194.33 45.3138 194.33 41.3843C194.33 37.5071 191.71 35.9353 187.938 35.9353H183.222ZM216.807 58.5695H232.316V65.5904H215.759H209.157V28.9145H216.807H231.844V35.9353H216.807V43.6896H228.177V50.6056H216.807V58.5695ZM245.467 58.5695H260.975V65.5904H244.419H237.817V28.9145H245.467H260.504V35.9353H245.467V43.6896H256.836V50.6056H245.467V58.5695ZM290.473 28.9145H298.123V65.5904H292.307L274.126 42.8513V65.5904H266.477V28.9145H272.397L290.473 51.7059V28.9145ZM312.06 28.9145V65.5904H304.41V28.9145H312.06ZM339.043 28.9145H346.692V52.2822C346.692 61.1892 340.248 66.3763 332.546 66.3763C324.844 66.3763 318.347 61.1892 318.347 52.2822V28.9145H325.996V52.3346C325.996 57.6788 329.507 59.1983 332.546 59.1983C335.532 59.1983 339.043 57.6788 339.043 52.3346V28.9145ZM364.978 28.2857C371.422 28.2857 375.509 32.3201 377.447 35.8829L371.789 39.2361C369.798 36.4592 367.859 35.0446 364.978 35.0446C362.41 35.0446 360.524 36.564 360.524 38.6598C360.524 40.7555 361.729 41.8558 364.611 42.9037L367.126 43.7944C375.247 46.6761 378.443 50.2913 378.443 55.3211C378.443 62.7087 371.422 66.3763 365.187 66.3763C358.586 66.3763 353.451 62.4467 351.67 57.3121L357.538 54.2208C358.848 56.8929 361.048 59.4602 365.187 59.4602C368.174 59.4602 370.479 58.1504 370.479 55.4259C370.479 52.8062 368.907 51.6535 364.925 50.1341L362.672 49.3482C357.276 47.4096 352.927 44.7375 352.927 38.3454C352.927 32.4773 358.428 28.2857 364.978 28.2857Z" fill="url(#paint1_linear_226_302)"/>
<path d="M139.711 83.5828H134.601V76.2938H135.666V82.5178H139.711V83.5828ZM142.046 80.6613V82.5178H146.54V83.5828H140.981V76.2938H146.111V77.3686H142.046V79.5768C142.248 79.4595 142.473 79.3814 142.72 79.3423C142.903 79.3097 143.137 79.2934 143.424 79.2934H145.016V80.378H143.424C143.157 80.378 142.922 80.3943 142.72 80.4268C142.473 80.4724 142.248 80.5506 142.046 80.6613ZM150.527 77.0657L150.126 76.1668H151.299L154.807 83.5828H153.615L153.136 82.5178H150.918C150.501 82.5178 150.126 82.5569 149.794 82.635C149.501 82.7067 149.257 82.8011 149.061 82.9184C148.885 83.0226 148.768 83.1301 148.71 83.2408L148.524 83.5828H147.371L150.527 77.0657ZM151.309 81.443H152.657L151.064 78.3652L149.452 81.8534C149.595 81.7296 149.814 81.6319 150.107 81.5602C150.439 81.4821 150.84 81.443 151.309 81.443ZM157.24 77.3588V79.782C157.441 79.6647 157.666 79.5865 157.914 79.5475C158.096 79.5149 158.331 79.4986 158.617 79.4986H160.005C160.389 79.4986 160.689 79.4107 160.904 79.2348C161.132 79.0459 161.246 78.7625 161.246 78.3847C161.246 78.0265 161.125 77.7594 160.884 77.5835C160.676 77.4337 160.382 77.3588 160.005 77.3588H157.24ZM160.356 82.4298L159.467 80.5636H158.617C158.35 80.5636 158.116 80.5799 157.914 80.6125C157.666 80.6581 157.441 80.7362 157.24 80.847V83.5828H156.174V76.2938H160.005C160.454 76.2938 160.851 76.3785 161.197 76.5478C161.542 76.7172 161.809 76.9582 161.998 77.2709C162.2 77.6031 162.301 77.9939 162.301 78.4434C162.301 78.9905 162.154 79.44 161.861 79.7917C161.568 80.1435 161.154 80.3877 160.62 80.5245L161.187 81.6873C161.35 81.9283 161.477 82.0976 161.568 82.1953C161.679 82.3191 161.785 82.4022 161.886 82.4445C161.986 82.4868 162.118 82.508 162.281 82.508H162.389L162.623 82.4982V83.5828C162.245 83.5828 161.965 83.5698 161.783 83.5437C161.477 83.4916 161.216 83.3906 161.001 83.2408C160.747 83.0584 160.532 82.7881 160.356 82.4298ZM164.597 77.3197L163.747 76.2938H165.125L169.805 81.8631V76.2938H170.88V83.5828H169.824L165.642 78.5704V83.5828H164.597V77.3197ZM181.1 77.3686H178.53V83.5828H177.494V77.3686H174.895V76.2938H181.1V77.3686ZM188.77 79.8894C188.77 79.3683 188.636 78.8961 188.369 78.4727C188.115 78.0623 187.768 77.7399 187.329 77.5054C186.889 77.2709 186.412 77.1536 185.897 77.1536C185.363 77.1536 184.876 77.2741 184.437 77.5151C183.997 77.7561 183.653 78.0851 183.406 78.502C183.152 78.9384 183.025 79.4237 183.025 79.9578C183.025 80.4659 183.161 80.9349 183.435 81.3648C183.696 81.7687 184.046 82.0895 184.485 82.3273C184.925 82.565 185.401 82.6839 185.912 82.6839C186.423 82.6839 186.899 82.5601 187.338 82.3126C187.778 82.0651 188.125 81.7329 188.379 81.316C188.64 80.8795 188.77 80.404 188.77 79.8894ZM189.825 79.9481C189.825 80.6516 189.643 81.2997 189.278 81.8925C188.926 82.4592 188.449 82.9102 187.847 83.2457C187.244 83.5812 186.594 83.7489 185.897 83.7489C185.174 83.7489 184.51 83.573 183.904 83.2213C183.311 82.8826 182.846 82.4168 182.507 81.8241C182.155 81.2183 181.979 80.5539 181.979 79.8308C181.979 79.1338 182.165 78.4922 182.536 77.906C182.888 77.3458 183.365 76.9012 183.968 76.5723C184.57 76.2433 185.217 76.0788 185.907 76.0788C186.617 76.0788 187.275 76.2514 187.881 76.5967C188.473 76.9354 188.942 77.3946 189.288 77.9744C189.646 78.5802 189.825 79.2381 189.825 79.9481ZM193.939 79.4107H195.228C195.945 79.4107 196.303 79.0654 196.303 78.375C196.303 78.0167 196.214 77.7578 196.034 77.5982C195.855 77.4386 195.587 77.3588 195.228 77.3588H192.551V79.7038C192.753 79.5865 192.981 79.5051 193.235 79.4595C193.424 79.427 193.659 79.4107 193.939 79.4107ZM192.551 83.5828H191.486V76.2938H195.228C195.658 76.2938 196.033 76.3768 196.352 76.5429C196.671 76.709 196.919 76.9484 197.095 77.2611C197.27 77.5738 197.358 77.9434 197.358 78.3701C197.358 78.7967 197.27 79.1697 197.095 79.4888C196.919 79.808 196.67 80.0539 196.347 80.2265C196.025 80.3991 195.652 80.4855 195.228 80.4855H193.939C193.378 80.4855 192.916 80.5832 192.551 80.7786V83.5828ZM207.237 81.3648C207.237 81.8403 207.093 82.2637 206.807 82.635C206.527 82.9868 206.141 83.2604 205.649 83.4558C205.157 83.6512 204.602 83.7489 203.983 83.7489C203.416 83.7489 202.866 83.617 202.332 83.3532C201.798 83.0894 201.348 82.723 200.983 82.254L201.745 81.5407C202.377 82.3028 203.123 82.6839 203.983 82.6839C204.361 82.6839 204.706 82.6383 205.019 82.5471C205.364 82.4429 205.631 82.2963 205.82 82.1074C206.035 81.899 206.142 81.6514 206.142 81.3648C206.142 81.0196 206.035 80.759 205.82 80.5832C205.638 80.4333 205.367 80.3356 205.009 80.29C204.8 80.264 204.459 80.251 203.983 80.251C203.11 80.251 202.444 80.0914 201.985 79.7722C201.526 79.453 201.296 78.984 201.296 78.3652C201.296 77.9744 201.412 77.6031 201.643 77.2513C201.874 76.8996 202.192 76.6195 202.596 76.411C203.012 76.1896 203.475 76.0788 203.983 76.0788C204.556 76.0788 205.074 76.1668 205.537 76.3426C206.032 76.5315 206.491 76.8279 206.914 77.2318L206.25 78.0134C205.852 77.6943 205.491 77.4712 205.165 77.3441C204.84 77.2171 204.445 77.1536 203.983 77.1536C203.716 77.1536 203.467 77.209 203.236 77.3197C203.004 77.4305 202.82 77.5786 202.683 77.7643C202.547 77.9499 202.478 78.147 202.478 78.3554C202.478 78.9156 202.996 79.1957 204.032 79.1957C204.859 79.1957 205.514 79.2804 205.996 79.4498C206.452 79.6126 206.777 79.8601 206.973 80.1923C207.149 80.4855 207.237 80.8763 207.237 81.3648ZM211.829 80.6613L209.865 83.5828H208.8V76.2938H209.865V81.7361L213.568 76.2938H214.848L212.454 79.7233L213.764 81.6873C213.972 81.9999 214.177 82.2214 214.379 82.3517C214.542 82.4559 214.715 82.508 214.897 82.508L215.2 82.4982V83.5828H215.004C214.679 83.5893 214.441 83.5763 214.291 83.5437C214.05 83.5046 213.829 83.4069 213.627 83.2506C213.399 83.0682 213.168 82.7946 212.933 82.4298L211.829 80.6613ZM217.906 83.5828H216.861V76.2938H217.906V83.5828ZM225.166 83.5828H220.056V76.2938H221.121V82.5178H225.166V83.5828ZM231.546 83.5828H226.436V76.2938H227.501V82.5178H231.546V83.5828ZM238.484 81.3648C238.484 81.8403 238.34 82.2637 238.054 82.635C237.774 82.9868 237.388 83.2604 236.896 83.4558C236.404 83.6512 235.849 83.7489 235.23 83.7489C234.663 83.7489 234.113 83.617 233.579 83.3532C233.045 83.0894 232.595 82.723 232.23 82.254L232.992 81.5407C233.624 82.3028 234.37 82.6839 235.23 82.6839C235.608 82.6839 235.953 82.6383 236.266 82.5471C236.611 82.4429 236.878 82.2963 237.067 82.1074C237.282 81.899 237.389 81.6514 237.389 81.3648C237.389 81.0196 237.282 80.759 237.067 80.5832C236.885 80.4333 236.614 80.3356 236.256 80.29C236.047 80.264 235.705 80.251 235.23 80.251C234.357 80.251 233.691 80.0914 233.232 79.7722C232.773 79.453 232.543 78.984 232.543 78.3652C232.543 77.9744 232.659 77.6031 232.89 77.2513C233.121 76.8996 233.439 76.6195 233.843 76.411C234.259 76.1896 234.722 76.0788 235.23 76.0788C235.803 76.0788 236.321 76.1668 236.784 76.3426C237.279 76.5315 237.738 76.8279 238.161 77.2318L237.497 78.0134C237.099 77.6943 236.738 77.4712 236.412 77.3441C236.087 77.2171 235.692 77.1536 235.23 77.1536C234.963 77.1536 234.714 77.209 234.483 77.3197C234.251 77.4305 234.067 77.5786 233.93 77.7643C233.794 77.9499 233.725 78.147 233.725 78.3554C233.725 78.9156 234.243 79.1957 235.279 79.1957C236.106 79.1957 236.761 79.2804 237.243 79.4498C237.699 79.6126 238.024 79.8601 238.22 80.1923C238.396 80.4855 238.484 80.8763 238.484 81.3648ZM243.76 80.6613V83.5828H242.695V76.2938H247.825V77.3686H243.76V79.5768C243.962 79.4595 244.187 79.3814 244.434 79.3423C244.616 79.3097 244.851 79.2934 245.138 79.2934H246.73V80.378H245.138C244.871 80.378 244.636 80.3943 244.434 80.4268C244.187 80.4724 243.962 80.5506 243.76 80.6613ZM250.551 77.3588V79.782C250.753 79.6647 250.977 79.5865 251.225 79.5475C251.407 79.5149 251.642 79.4986 251.928 79.4986H253.316C253.7 79.4986 254 79.4107 254.215 79.2348C254.443 79.0459 254.557 78.7625 254.557 78.3847C254.557 78.0265 254.436 77.7594 254.195 77.5835C253.987 77.4337 253.694 77.3588 253.316 77.3588H250.551ZM253.667 82.4298L252.778 80.5636H251.928C251.661 80.5636 251.427 80.5799 251.225 80.6125C250.977 80.6581 250.753 80.7362 250.551 80.847V83.5828H249.486V76.2938H253.316C253.765 76.2938 254.163 76.3785 254.508 76.5478C254.853 76.7172 255.12 76.9582 255.309 77.2709C255.511 77.6031 255.612 77.9939 255.612 78.4434C255.612 78.9905 255.465 79.44 255.172 79.7917C254.879 80.1435 254.465 80.3877 253.931 80.5245L254.498 81.6873C254.661 81.9283 254.788 82.0976 254.879 82.1953C254.99 82.3191 255.096 82.4022 255.197 82.4445C255.298 82.4868 255.429 82.508 255.592 82.508H255.7L255.934 82.4982V83.5828C255.556 83.5828 255.276 83.5698 255.094 83.5437C254.788 83.4916 254.527 83.3906 254.312 83.2408C254.058 83.0584 253.843 82.7881 253.667 82.4298ZM263.995 79.8894C263.995 79.3683 263.862 78.8961 263.595 78.4727C263.341 78.0623 262.994 77.7399 262.554 77.5054C262.114 77.2709 261.637 77.1536 261.123 77.1536C260.588 77.1536 260.102 77.2741 259.662 77.5151C259.222 77.7561 258.879 78.0851 258.631 78.502C258.377 78.9384 258.25 79.4237 258.25 79.9578C258.25 80.4659 258.387 80.9349 258.66 81.3648C258.921 81.7687 259.271 82.0895 259.711 82.3273C260.15 82.565 260.626 82.6839 261.137 82.6839C261.649 82.6839 262.124 82.5601 262.564 82.3126C263.003 82.0651 263.35 81.7329 263.604 81.316C263.865 80.8795 263.995 80.404 263.995 79.8894ZM265.05 79.9481C265.05 80.6516 264.868 81.2997 264.503 81.8925C264.152 82.4592 263.674 82.9102 263.072 83.2457C262.469 83.5812 261.82 83.7489 261.123 83.7489C260.4 83.7489 259.735 83.573 259.129 83.2213C258.537 82.8826 258.071 82.4168 257.732 81.8241C257.38 81.2183 257.205 80.5539 257.205 79.8308C257.205 79.1338 257.39 78.4922 257.761 77.906C258.113 77.3458 258.59 76.9012 259.193 76.5723C259.795 76.2433 260.442 76.0788 261.132 76.0788C261.842 76.0788 262.5 76.2514 263.106 76.5967C263.699 76.9354 264.168 77.3946 264.513 77.9744C264.871 78.5802 265.05 79.2381 265.05 79.9481ZM272.935 78.5704L270.444 81.5505L267.972 78.5704V83.5828H266.926V77.3197L266.076 76.2938H267.454L270.434 79.8699L273.453 76.2938H274.831L273.981 77.3197V83.5828H272.935V78.5704ZM280.058 80.6613V82.5178H284.553V83.5828H278.993V76.2938H284.123V77.3686H280.058V79.5768C280.26 79.4595 280.485 79.3814 280.733 79.3423C280.915 79.3097 281.149 79.2934 281.436 79.2934H283.029V80.378H281.436C281.169 80.378 280.934 80.3943 280.733 80.4268C280.485 80.4724 280.26 80.5506 280.058 80.6613ZM292.839 83.5828H291.49L289.253 80.5148L286.937 83.5828H285.579L288.569 79.6256L286.165 76.2938H287.455L289.253 78.7267L291.08 76.2938H292.399L289.927 79.6256L292.839 83.5828ZM296.757 79.4107H298.046C298.763 79.4107 299.121 79.0654 299.121 78.375C299.121 78.0167 299.032 77.7578 298.853 77.5982C298.673 77.4386 298.405 77.3588 298.046 77.3588H295.369V79.7038C295.571 79.5865 295.799 79.5051 296.053 79.4595C296.242 79.427 296.477 79.4107 296.757 79.4107ZM295.369 83.5828H294.304V76.2938H298.046C298.476 76.2938 298.851 76.3768 299.17 76.5429C299.489 76.709 299.737 76.9484 299.913 77.2611C300.088 77.5738 300.176 77.9434 300.176 78.3701C300.176 78.7967 300.088 79.1697 299.913 79.4888C299.737 79.808 299.488 80.0539 299.165 80.2265C298.843 80.3991 298.47 80.4855 298.046 80.4855H296.757C296.196 80.4855 295.734 80.5832 295.369 80.7786V83.5828ZM302.805 80.6613V82.5178H307.299V83.5828H301.74V76.2938H306.869V77.3686H302.805V79.5768C303.007 79.4595 303.231 79.3814 303.479 79.3423C303.661 79.3097 303.896 79.2934 304.182 79.2934H305.775V80.378H304.182C303.915 80.378 303.681 80.3943 303.479 80.4268C303.231 80.4724 303.007 80.5506 302.805 80.6613ZM310.074 77.3588V79.782C310.276 79.6647 310.501 79.5865 310.748 79.5475C310.931 79.5149 311.165 79.4986 311.452 79.4986H312.839C313.224 79.4986 313.523 79.4107 313.738 79.2348C313.966 79.0459 314.08 78.7625 314.08 78.3847C314.08 78.0265 313.96 77.7594 313.719 77.5835C313.51 77.4337 313.217 77.3588 312.839 77.3588H310.074ZM313.191 82.4298L312.302 80.5636H311.452C311.185 80.5636 310.95 80.5799 310.748 80.6125C310.501 80.6581 310.276 80.7362 310.074 80.847V83.5828H309.009V76.2938H312.839C313.289 76.2938 313.686 76.3785 314.031 76.5478C314.377 76.7172 314.644 76.9582 314.833 77.2709C315.035 77.6031 315.136 77.9939 315.136 78.4434C315.136 78.9905 314.989 79.44 314.696 79.7917C314.403 80.1435 313.989 80.3877 313.455 80.5245L314.022 81.6873C314.185 81.9283 314.312 82.0976 314.403 82.1953C314.513 82.3191 314.619 82.4022 314.72 82.4445C314.821 82.4868 314.953 82.508 315.116 82.508H315.223L315.458 82.4982V83.5828C315.08 83.5828 314.8 83.5698 314.618 83.5437C314.312 83.4916 314.051 83.3906 313.836 83.2408C313.582 83.0584 313.367 82.7881 313.191 82.4298ZM322.64 77.3686H320.07V83.5828H319.034V77.3686H316.435V76.2938H322.64V77.3686ZM329.674 81.3648C329.674 81.8403 329.531 82.2637 329.245 82.635C328.964 82.9868 328.579 83.2604 328.087 83.4558C327.595 83.6512 327.04 83.7489 326.421 83.7489C325.854 83.7489 325.304 83.617 324.77 83.3532C324.235 83.0894 323.786 82.723 323.421 82.254L324.183 81.5407C324.815 82.3028 325.561 82.6839 326.421 82.6839C326.799 82.6839 327.144 82.6383 327.456 82.5471C327.802 82.4429 328.069 82.2963 328.258 82.1074C328.473 81.899 328.58 81.6514 328.58 81.3648C328.58 81.0196 328.473 80.759 328.258 80.5832C328.075 80.4333 327.805 80.3356 327.447 80.29C327.238 80.264 326.896 80.251 326.421 80.251C325.548 80.251 324.882 80.0914 324.423 79.7722C323.963 79.453 323.734 78.984 323.734 78.3652C323.734 77.9744 323.849 77.6031 324.081 77.2513C324.312 76.8996 324.629 76.6195 325.033 76.411C325.45 76.1896 325.913 76.0788 326.421 76.0788C326.994 76.0788 327.512 76.1668 327.974 76.3426C328.469 76.5315 328.929 76.8279 329.352 77.2318L328.688 78.0134C328.29 77.6943 327.929 77.4712 327.603 77.3441C327.277 77.2171 326.883 77.1536 326.421 77.1536C326.154 77.1536 325.905 77.209 325.673 77.3197C325.442 77.4305 325.258 77.5786 325.121 77.7643C324.984 77.9499 324.916 78.147 324.916 78.3554C324.916 78.9156 325.434 79.1957 326.47 79.1957C327.297 79.1957 327.952 79.2804 328.434 79.4498C328.89 79.6126 329.215 79.8601 329.411 80.1923C329.587 80.4855 329.674 80.8763 329.674 81.3648Z" fill="url(#paint2_linear_226_302)"/>
<path d="M0 56.0147C0 59.2381 1.62025 62.2144 4.22846 64.7265C6.83669 67.2386 10.4608 69.3811 14.8591 71.1732C23.6559 74.7566 35.591 76.9154 48.7685 76.9154C61.9459 76.9154 73.881 74.7566 82.6778 71.1732C87.0762 69.3811 90.7003 67.2386 93.3085 64.7265C95.9167 62.2144 97.537 59.2381 97.537 56.0147C97.537 52.7912 95.9167 49.8113 93.3085 47.2992C90.7003 44.7867 87.0762 42.6444 82.6778 40.8525C73.881 37.2691 61.9459 35.1139 48.7685 35.1139C35.591 35.1139 23.6559 37.2691 14.8591 40.8525C10.4608 42.6444 6.83669 44.7867 4.22846 47.2992C1.62025 49.8113 0 52.7912 0 56.0147ZM3.48686 56.0147C3.48686 53.9481 4.49964 51.8844 6.65056 49.8129C8.80147 47.7413 12.0643 45.7591 16.1756 44.0845C24.3984 40.7344 35.975 38.6005 48.7685 38.6005C61.5619 38.6005 73.1386 40.7344 81.3613 44.0845C85.4727 45.7591 88.7355 47.7413 90.8864 49.8129C93.0373 51.8844 94.0501 53.9481 94.0501 56.0147C94.0501 58.081 93.0373 60.141 90.8864 62.2128C88.7355 64.2842 85.4727 66.27 81.3613 67.9448C73.1386 71.2945 61.5619 73.4252 48.7685 73.4252C35.975 73.4252 24.3984 71.2945 16.1756 67.9448C12.0643 66.27 8.80147 64.2842 6.65056 62.2128C4.49964 60.141 3.48686 58.081 3.48686 56.0147Z" fill="url(#paint3_linear_226_302)"/>
<path d="M74.1913 100.005C76.9991 98.3859 78.7247 95.4245 79.5298 91.825C80.335 88.2256 80.2924 83.8968 79.5438 79.042C78.0479 69.3326 73.6872 57.494 66.8161 45.6051C59.9449 33.7163 51.8621 24.0239 44.1929 17.8752C40.3583 14.8007 36.627 12.5996 33.104 11.4964C29.5811 10.3933 26.1511 10.4055 23.3433 12.0249C20.5354 13.6446 18.8128 16.6041 18.0076 20.2036C17.2025 23.803 17.2451 28.1318 17.9937 32.9863C19.4895 42.6958 23.8504 54.5345 30.7215 66.4234C37.5926 78.3123 45.6753 88.0045 53.3444 94.1531C57.1791 97.2278 60.9105 99.4288 64.4334 100.532C67.9564 101.635 71.3835 101.625 74.1913 100.005ZM72.4449 96.9835C70.6863 97.9978 68.3908 98.1176 65.4723 97.2037C62.5539 96.2898 59.1279 94.3243 55.5272 91.4374C48.3259 85.6639 40.4294 76.2529 33.7419 64.6815C27.0542 53.1099 22.844 41.5727 21.4394 32.4556C20.7372 27.8973 20.7461 23.9506 21.413 20.9688C22.0801 17.9871 23.3316 16.061 25.0902 15.0466C26.8488 14.0326 29.1444 13.9128 32.0628 14.8263C34.9812 15.7402 38.4103 17.7044 42.0108 20.5909C49.2121 26.3646 57.1056 35.7773 63.7932 47.3488C70.4808 58.9202 74.6941 70.4556 76.0987 79.5725C76.801 84.1312 76.7889 88.0795 76.1219 91.0613C75.4549 94.043 74.2035 95.9691 72.4449 96.9835Z" fill="url(#paint4_linear_226_302)"/>
<path d="M23.3462 100.005C20.5382 98.3855 18.8128 95.424 18.0075 91.8244C17.2023 88.2248 17.2433 83.8991 17.9918 79.0442C19.4875 69.3344 23.8503 57.4925 30.7215 45.603C37.5927 33.7138 45.6754 24.0213 53.3448 17.8723C57.1795 14.7978 60.9091 12.5994 64.4321 11.4962C67.9552 10.3932 71.3852 10.4051 74.1932 12.0248C77.0011 13.6442 78.7237 16.6039 79.5289 20.2036C80.3339 23.803 80.2931 28.1291 79.5445 32.984C78.0486 42.6936 73.6878 54.5326 66.8166 66.422C59.9454 78.3112 51.8607 88.0067 44.1915 94.1555C40.3568 97.2304 36.627 99.4286 33.104 100.532C29.5811 101.635 26.1541 101.625 23.3462 100.005ZM25.0927 96.9833C26.8512 97.9975 29.1451 98.1202 32.0636 97.2061C34.9822 96.2926 38.4098 94.3236 42.0106 91.437C49.212 85.6634 57.1084 76.2517 63.7962 64.6798C70.4838 53.1081 74.6926 41.5738 76.0972 32.4565C76.7994 27.8977 76.7921 23.948 76.125 20.966C75.458 17.9842 74.2065 16.0583 72.448 15.0439C70.6893 14.0297 68.3938 13.9097 65.4753 14.8236C62.5567 15.7375 59.126 17.7043 55.5253 20.5914C48.3239 26.3651 40.4321 35.775 33.7444 47.3469C27.0567 58.9188 22.8434 70.4544 21.4388 79.5717C20.7365 84.1302 20.7466 88.0817 21.4138 91.0637C22.0808 94.0454 23.3341 95.9689 25.0927 96.9833Z" fill="url(#paint5_linear_226_302)"/>
<g clip-path="url(#clip1_226_302)">
<path fill-rule="evenodd" clip-rule="evenodd" d="M58.5917 55.8368C59.525 62.6342 54.8583 66.8895 49.0833 66.8895C43.0167 66.8895 38 62.6342 38 56.5C38 50.3105 43.1333 46.0553 49.0833 46.0553C51.9417 46.0553 54.45 46.9395 56.2583 48.4868L53.575 51.3053C52.4667 50.5868 50.95 50.0342 49.375 50.0342C45.4667 50.0342 42.6667 52.7421 42.6667 56.5C42.6667 60.2579 45.4083 62.9658 49.0833 62.9658C51.8833 62.9658 53.8667 61.9711 54.45 59.429H49.4333V55.8368H58.5917ZM78.7167 66.6132H73.9917L69.4417 59.8711H66.35V66.6132H61.9167V46.3316H69.3833C74.1667 46.3316 77.3167 49.0947 77.3167 53.2395C77.3167 56.0026 75.9167 58.0474 73.525 59.0974L78.7167 66.6132ZM66.2917 50.2V56.2237H69.0917C71.25 56.2237 72.825 55.3947 72.825 53.2395C72.825 51.0842 71.25 50.2 69.0917 50.2H66.2917ZM85.8333 62.7447H94.9333V66.6132H81.4V46.3316H94.6417V50.2H85.8333V54.5105H92.4833V58.3237H85.8333V62.7447ZM102.575 62.7447H111.617V66.6132H98.1417V46.3316H111.325V50.2553H102.575V54.5105H109.225V58.3237H102.575V62.7447ZM128.825 46.3868H133.317V66.6684H129.875L119.317 54.0684V66.6684H114.825V46.3868H118.267L128.825 58.9868V46.3868ZM141.425 46.3868V66.6132H136.933V46.3868H141.425ZM157.175 46.3868H161.667V59.2632C161.667 64.1816 157.875 67.0553 153.383 67.0553C148.892 67.0553 145.1 64.1816 145.1 59.2632V46.3868H149.592V59.3184C149.592 62.2474 151.633 63.1316 153.383 63.1316C155.133 63.1316 157.175 62.2474 157.175 59.3184V46.3868ZM172.342 46.0553C176.075 46.0553 178.467 48.2658 179.575 50.2553L176.308 52.079C175.142 50.5316 173.975 49.7579 172.342 49.7579C170.825 49.7579 169.717 50.5868 169.717 51.7474C169.717 52.9079 170.417 53.5158 172.108 54.1237L173.567 54.6211C178.292 56.2237 180.158 58.2132 180.158 60.9763C180.158 65.0658 176.075 67.1105 172.458 67.1105C168.608 67.1105 165.575 64.9 164.583 62.0816L167.967 60.3684C168.725 61.8605 170.008 63.2421 172.458 63.2421C174.208 63.2421 175.55 62.5237 175.55 61.0316C175.55 59.5947 174.617 58.9316 172.283 58.1026L171 57.6605C167.85 56.6105 165.283 55.1184 165.283 51.5816C165.283 48.3763 168.492 46.0553 172.342 46.0553Z" fill="url(#paint6_linear_226_302)"/>
</g>
</g>
<defs>
<linearGradient id="paint0_linear_226_302" x1="117.044" y1="0" x2="121.921" y2="0" gradientUnits="userSpaceOnUse">
<stop stop-color="#905E26"/>
<stop offset="0.5" stop-color="#F5EC9B"/>
<stop offset="1" stop-color="#905E26"/>
</linearGradient>
<linearGradient id="paint1_linear_226_302" x1="134.601" y1="28.2857" x2="378.443" y2="28.2857" gradientUnits="userSpaceOnUse">
<stop stop-color="#905E26"/>
<stop offset="0.5" stop-color="#F5EC9B"/>
<stop offset="1" stop-color="#905E26"/>
</linearGradient>
<linearGradient id="paint2_linear_226_302" x1="134.601" y1="76.0788" x2="329.674" y2="76.0788" gradientUnits="userSpaceOnUse">
<stop stop-color="#905E26"/>
<stop offset="0.5" stop-color="#F5EC9B"/>
<stop offset="1" stop-color="#905E26"/>
</linearGradient>
<linearGradient id="paint3_linear_226_302" x1="0" y1="35.1139" x2="97.5369" y2="35.1139" gradientUnits="userSpaceOnUse">
<stop stop-color="#905E26"/>
<stop offset="0.5" stop-color="#F5EC9B"/>
<stop offset="1" stop-color="#905E26"/>
</linearGradient>
<linearGradient id="paint4_linear_226_302" x1="17.418" y1="10.7296" x2="80.1195" y2="10.7296" gradientUnits="userSpaceOnUse">
<stop stop-color="#905E26"/>
<stop offset="0.5" stop-color="#F5EC9B"/>
<stop offset="1" stop-color="#905E26"/>
</linearGradient>
<linearGradient id="paint5_linear_226_302" x1="17.417" y1="10.7294" x2="80.1193" y2="10.7294" gradientUnits="userSpaceOnUse">
<stop stop-color="#905E26"/>
<stop offset="0.5" stop-color="#F5EC9B"/>
<stop offset="1" stop-color="#905E26"/>
</linearGradient>
<linearGradient id="paint6_linear_226_302" x1="38.0315" y1="52.7178" x2="180.273" y2="52.7178" gradientUnits="userSpaceOnUse">
<stop stop-color="#905E26"/>
<stop offset="0.76" stop-color="#F5EC9B"/>
<stop offset="1" stop-color="#905E26"/>
</linearGradient>
<clipPath id="clip0_226_302">
<rect width="396" height="111.192" fill="white"/>
</clipPath>
<clipPath id="clip1_226_302">
<rect width="21" height="21" fill="white" transform="translate(38 46)"/>
</clipPath>
</defs>
</svg>
